<svg width="220" height="185" viewBox="0 0 220 185" fill="none" xmlns="http://www.w3.org/2000/svg">
<g clip-path="url(#clip0_2945_963)">
<mask id="mask0_2945_963" style="mask-type:luminance" maskUnits="userSpaceOnUse" x="0" y="0" width="220" height="185">
<path d="M0 0H220V185H0V0Z" fill="white"/>
</mask>
<g mask="url(#mask0_2945_963)">
<path d="M110.674 38.3105C122.541 38.3105 134.141 41.8295 144.008 48.4224C153.875 55.0153 161.565 64.386 166.107 75.3495C170.648 86.3131 171.836 98.3771 169.521 110.016C167.206 121.655 161.491 132.346 153.1 140.737C144.709 149.128 134.018 154.843 122.379 157.158C110.74 159.473 98.6764 158.285 87.7128 153.743C76.7493 149.202 67.3785 141.512 60.7857 131.645C54.1928 121.778 50.6738 110.177 50.6738 98.3105C50.6738 82.3976 56.9952 67.1363 68.2474 55.8841C79.4996 44.632 94.7608 38.3105 110.674 38.3105Z" fill="#EAF3F9"/>
<path d="M149.752 168.808C149.682 168.808 149.614 168.787 149.557 168.747L147.32 167.185C147.281 167.16 147.248 167.128 147.223 167.09C147.197 167.052 147.179 167.01 147.17 166.965C147.162 166.92 147.162 166.873 147.171 166.829C147.181 166.784 147.199 166.742 147.225 166.704C147.252 166.666 147.285 166.635 147.324 166.61C147.363 166.586 147.406 166.57 147.451 166.562C147.496 166.555 147.542 166.557 147.587 166.568C147.631 166.579 147.673 166.599 147.71 166.626L149.947 168.187C150.007 168.229 150.052 168.289 150.075 168.358C150.098 168.427 150.099 168.502 150.077 168.572C150.054 168.641 150.01 168.702 149.951 168.745C149.891 168.787 149.82 168.809 149.747 168.808H149.752Z" fill="#0058CE"/>
<path d="M145.937 165.633C145.846 165.633 145.76 165.597 145.696 165.533C145.632 165.469 145.596 165.383 145.596 165.292V162.563C145.596 162.473 145.632 162.386 145.696 162.322C145.76 162.258 145.846 162.222 145.937 162.222C146.027 162.222 146.114 162.258 146.178 162.322C146.242 162.386 146.278 162.473 146.278 162.563V165.291C146.278 165.336 146.269 165.38 146.252 165.422C146.235 165.463 146.21 165.501 146.178 165.533C146.146 165.565 146.109 165.59 146.067 165.607C146.026 165.624 145.982 165.633 145.937 165.633Z" fill="#0058CE"/>
<path d="M142.128 168.808C142.055 168.809 141.983 168.787 141.924 168.745C141.864 168.702 141.82 168.641 141.798 168.572C141.775 168.502 141.776 168.427 141.799 168.358C141.823 168.289 141.868 168.229 141.928 168.187L144.165 166.626C144.201 166.599 144.243 166.579 144.287 166.568C144.332 166.557 144.378 166.555 144.423 166.562C144.468 166.57 144.512 166.586 144.55 166.61C144.589 166.635 144.623 166.666 144.649 166.704C144.675 166.742 144.693 166.784 144.703 166.829C144.712 166.873 144.713 166.92 144.704 166.965C144.695 167.01 144.677 167.052 144.652 167.09C144.626 167.128 144.593 167.16 144.555 167.185L142.318 168.747C142.262 168.786 142.196 168.807 142.128 168.808Z" fill="#0058CE"/>
<path d="M131.904 177.135H127.811C127.721 177.135 127.634 177.099 127.57 177.035C127.506 176.971 127.47 176.884 127.47 176.794C127.47 176.703 127.506 176.616 127.57 176.552C127.634 176.489 127.721 176.453 127.811 176.453H131.904C131.994 176.453 132.081 176.489 132.145 176.552C132.209 176.616 132.245 176.703 132.245 176.794C132.245 176.884 132.209 176.971 132.145 177.035C132.081 177.099 131.994 177.135 131.904 177.135ZM123.719 177.135H119.626C119.536 177.135 119.449 177.099 119.385 177.035C119.321 176.971 119.285 176.884 119.285 176.794C119.285 176.703 119.321 176.616 119.385 176.552C119.449 176.489 119.536 176.453 119.626 176.453H123.719C123.809 176.453 123.896 176.489 123.96 176.552C124.024 176.616 124.06 176.703 124.06 176.794C124.06 176.884 124.024 176.971 123.96 177.035C123.896 177.099 123.809 177.135 123.719 177.135ZM115.534 177.135H111.438C111.348 177.135 111.261 177.099 111.197 177.035C111.133 176.971 111.097 176.884 111.097 176.794C111.097 176.703 111.133 176.616 111.197 176.552C111.261 176.489 111.348 176.453 111.438 176.453H115.538C115.628 176.453 115.715 176.489 115.779 176.552C115.843 176.616 115.879 176.703 115.879 176.794C115.879 176.884 115.843 176.971 115.779 177.035C115.715 177.099 115.628 177.135 115.538 177.135H115.534ZM107.35 177.135H103.257C103.167 177.135 103.08 177.099 103.016 177.035C102.952 176.971 102.916 176.884 102.916 176.794C102.916 176.703 102.952 176.616 103.016 176.552C103.08 176.489 103.167 176.453 103.257 176.453H107.35C107.44 176.453 107.527 176.489 107.591 176.552C107.655 176.616 107.691 176.703 107.691 176.794C107.691 176.884 107.655 176.971 107.591 177.035C107.527 177.099 107.44 177.135 107.35 177.135Z" fill="#0058CE"/>
<path d="M101.821 179.048C101.741 179.049 101.664 179.021 101.603 178.97L99.3027 177.055C99.264 177.023 99.2328 176.982 99.2116 176.936C99.1903 176.89 99.1794 176.84 99.1797 176.789C99.1802 176.739 99.1921 176.689 99.2144 176.643C99.2367 176.597 99.269 176.557 99.3087 176.525L101.715 174.61C101.786 174.554 101.876 174.528 101.966 174.538C102.056 174.549 102.138 174.594 102.194 174.665C102.251 174.736 102.277 174.826 102.266 174.916C102.256 175.006 102.211 175.088 102.14 175.144L100.062 176.798L102.044 178.445C102.096 178.491 102.134 178.551 102.152 178.618C102.169 178.685 102.166 178.756 102.142 178.821C102.118 178.887 102.075 178.943 102.018 178.983C101.962 179.023 101.894 179.045 101.825 179.045L101.821 179.048Z" fill="#0058CE"/>
<path d="M100.599 166.939C100.464 166.939 100.331 166.913 100.207 166.862C100.083 166.81 99.9697 166.734 99.8748 166.639L99.4747 166.239C99.2833 166.047 99.1758 165.787 99.1758 165.516C99.1758 165.244 99.2833 164.984 99.4747 164.792L99.8748 164.392C100.067 164.201 100.327 164.093 100.598 164.093C100.869 164.093 101.13 164.201 101.322 164.392L101.722 164.792C101.913 164.984 102.021 165.244 102.021 165.516C102.021 165.787 101.913 166.047 101.722 166.239L101.322 166.639C101.227 166.734 101.114 166.81 100.99 166.861C100.866 166.913 100.733 166.939 100.599 166.939ZM100.599 164.772C100.554 164.772 100.51 164.781 100.468 164.798C100.427 164.815 100.389 164.84 100.358 164.872L99.9578 165.272C99.8938 165.336 99.8579 165.423 99.8579 165.514C99.8579 165.604 99.8938 165.691 99.9578 165.755L100.358 166.155C100.422 166.219 100.508 166.255 100.599 166.255C100.689 166.255 100.776 166.219 100.84 166.155L101.24 165.755C101.303 165.691 101.339 165.604 101.339 165.514C101.339 165.423 101.303 165.336 101.24 165.272L100.84 164.872C100.808 164.84 100.771 164.815 100.729 164.798C100.688 164.78 100.644 164.771 100.599 164.771V164.772Z" fill="#0058CE"/>
<path d="M104.459 166.939C104.325 166.94 104.192 166.913 104.068 166.862C103.944 166.81 103.831 166.735 103.736 166.639L103.336 166.239C103.145 166.047 103.037 165.787 103.037 165.516C103.037 165.244 103.145 164.984 103.336 164.792L103.736 164.392C103.931 164.206 104.19 164.102 104.46 164.102C104.729 164.102 104.989 164.206 105.183 164.392L105.583 164.792C105.775 164.984 105.882 165.245 105.882 165.516C105.882 165.787 105.775 166.047 105.583 166.239L105.183 166.639C105.089 166.735 104.976 166.811 104.852 166.862C104.727 166.914 104.594 166.94 104.459 166.939ZM104.459 164.771C104.415 164.771 104.37 164.78 104.328 164.797C104.287 164.814 104.249 164.839 104.217 164.871L103.818 165.271C103.754 165.335 103.718 165.422 103.718 165.513C103.718 165.603 103.754 165.69 103.818 165.754L104.217 166.154C104.282 166.216 104.369 166.251 104.458 166.251C104.548 166.251 104.635 166.216 104.699 166.154L105.099 165.754C105.163 165.69 105.199 165.603 105.199 165.513C105.199 165.422 105.163 165.335 105.099 165.271L104.699 164.871C104.636 164.808 104.55 164.772 104.459 164.771Z" fill="#0058CE"/>
<path d="M108.32 166.939C108.185 166.94 108.052 166.913 107.928 166.862C107.804 166.81 107.691 166.735 107.596 166.639L107.196 166.239C107.004 166.047 106.896 165.787 106.896 165.516C106.896 165.244 107.004 164.984 107.196 164.792L107.596 164.392C107.791 164.206 108.05 164.102 108.319 164.102C108.589 164.102 108.848 164.206 109.043 164.392L109.443 164.792C109.634 164.984 109.742 165.245 109.742 165.516C109.742 165.787 109.634 166.047 109.443 166.239L109.043 166.639C108.948 166.735 108.836 166.81 108.711 166.862C108.587 166.913 108.454 166.94 108.32 166.939ZM108.32 164.771C108.275 164.771 108.231 164.78 108.189 164.797C108.148 164.814 108.11 164.839 108.079 164.871L107.679 165.271C107.615 165.335 107.579 165.422 107.579 165.513C107.579 165.603 107.615 165.69 107.679 165.754L108.079 166.154C108.144 166.216 108.23 166.251 108.32 166.251C108.41 166.251 108.496 166.216 108.561 166.154L108.961 165.754C108.993 165.723 109.018 165.685 109.035 165.643C109.052 165.602 109.061 165.558 109.061 165.513C109.061 165.468 109.052 165.423 109.035 165.382C109.018 165.341 108.993 165.303 108.961 165.271L108.561 164.871C108.529 164.839 108.492 164.814 108.45 164.797C108.409 164.78 108.365 164.771 108.32 164.771Z" fill="#0058CE"/>
<path d="M169.247 174.534C168.975 174.534 168.715 174.426 168.524 174.234L168.124 173.834C167.932 173.642 167.824 173.382 167.824 173.111C167.824 172.84 167.932 172.58 168.124 172.388L168.524 171.987C168.716 171.796 168.976 171.689 169.247 171.689C169.518 171.689 169.778 171.796 169.971 171.987L170.371 172.388C170.562 172.58 170.669 172.84 170.669 173.111C170.669 173.382 170.562 173.642 170.371 173.834L169.971 174.234C169.875 174.33 169.763 174.405 169.638 174.457C169.514 174.508 169.381 174.535 169.247 174.534ZM169.247 172.367C169.202 172.366 169.157 172.375 169.116 172.392C169.074 172.41 169.036 172.435 169.005 172.466L168.605 172.867C168.541 172.93 168.505 173.017 168.505 173.107C168.505 173.198 168.541 173.285 168.605 173.349L169.005 173.748C169.068 173.812 169.155 173.848 169.246 173.848C169.336 173.848 169.423 173.812 169.487 173.748L169.887 173.349C169.95 173.285 169.986 173.198 169.986 173.107C169.986 173.017 169.95 172.93 169.887 172.867L169.487 172.466C169.423 172.403 169.337 172.368 169.248 172.367L169.247 172.367Z" fill="#0058CE"/>
<path d="M173.108 174.535C172.974 174.536 172.841 174.509 172.716 174.458C172.592 174.406 172.48 174.331 172.385 174.235L171.985 173.835C171.793 173.643 171.686 173.383 171.686 173.112C171.686 172.841 171.793 172.58 171.985 172.388L172.385 171.988C172.577 171.797 172.837 171.69 173.108 171.69C173.38 171.69 173.64 171.797 173.832 171.988L174.232 172.388C174.423 172.581 174.531 172.841 174.531 173.112C174.531 173.383 174.423 173.643 174.232 173.835L173.832 174.235C173.737 174.331 173.624 174.406 173.5 174.458C173.376 174.509 173.242 174.536 173.108 174.535ZM173.108 172.367C173.018 172.368 172.931 172.404 172.867 172.467L172.467 172.867C172.403 172.931 172.367 173.018 172.367 173.108C172.367 173.199 172.403 173.285 172.467 173.349L172.867 173.749C172.932 173.812 173.018 173.846 173.108 173.846C173.198 173.846 173.284 173.812 173.349 173.749L173.749 173.349C173.813 173.285 173.849 173.199 173.849 173.108C173.849 173.018 173.813 172.931 173.749 172.867L173.349 172.467C173.317 172.436 173.28 172.411 173.238 172.393C173.197 172.376 173.153 172.367 173.108 172.367Z" fill="#0058CE"/>
<path d="M176.968 174.535C176.833 174.536 176.7 174.509 176.576 174.458C176.452 174.406 176.339 174.331 176.245 174.235L175.845 173.835C175.75 173.74 175.674 173.628 175.623 173.503C175.571 173.379 175.545 173.246 175.545 173.112C175.545 172.978 175.571 172.844 175.623 172.72C175.674 172.596 175.75 172.483 175.845 172.388L176.245 171.988C176.437 171.797 176.697 171.69 176.968 171.69C177.239 171.69 177.499 171.797 177.692 171.988L178.092 172.388C178.187 172.483 178.262 172.596 178.314 172.72C178.365 172.844 178.391 172.978 178.391 173.112C178.391 173.246 178.365 173.379 178.314 173.503C178.262 173.628 178.187 173.74 178.092 173.835L177.692 174.235C177.597 174.331 177.484 174.406 177.36 174.458C177.235 174.509 177.102 174.536 176.968 174.535ZM176.968 172.367C176.877 172.368 176.791 172.404 176.727 172.467L176.327 172.867C176.295 172.899 176.27 172.937 176.253 172.978C176.235 173.019 176.227 173.064 176.227 173.108C176.227 173.153 176.235 173.198 176.253 173.239C176.27 173.28 176.295 173.318 176.327 173.349L176.727 173.749C176.791 173.812 176.878 173.846 176.968 173.846C177.057 173.846 177.144 173.812 177.209 173.749L177.609 173.349C177.64 173.318 177.666 173.28 177.683 173.239C177.7 173.198 177.709 173.153 177.709 173.108C177.709 173.064 177.7 173.019 177.683 172.978C177.666 172.937 177.64 172.899 177.609 172.867L177.209 172.467C177.177 172.436 177.14 172.411 177.098 172.393C177.057 172.376 177.012 172.367 176.968 172.367Z" fill="#0058CE"/>
<path d="M35.4658 140.174C35.3945 140.175 35.3246 140.154 35.2658 140.113L33.0288 138.551C32.9546 138.499 32.9039 138.42 32.8881 138.331C32.8722 138.242 32.8925 138.15 32.9444 138.076C32.9962 138.001 33.0754 137.951 33.1646 137.935C33.2537 137.919 33.3456 137.939 33.4198 137.991L35.6568 139.553C35.7168 139.595 35.7619 139.655 35.7853 139.724C35.8087 139.793 35.8092 139.868 35.7868 139.938C35.7644 140.007 35.7203 140.068 35.6608 140.11C35.6014 140.153 35.5299 140.175 35.4569 140.174H35.4658Z" fill="#0058CE"/>
<path d="M31.6535 137.001C31.5631 137.001 31.4764 136.965 31.4124 136.901C31.3485 136.837 31.3125 136.751 31.3125 136.66V133.931C31.3125 133.841 31.3485 133.754 31.4124 133.69C31.4764 133.626 31.5631 133.59 31.6535 133.59C31.7439 133.59 31.8307 133.626 31.8947 133.69C31.9586 133.754 31.9945 133.841 31.9945 133.931V136.659C31.9946 136.704 31.9859 136.749 31.9689 136.79C31.9518 136.832 31.9267 136.869 31.895 136.901C31.8633 136.933 31.8257 136.958 31.7842 136.975C31.7428 136.992 31.6984 137.001 31.6535 137.001Z" fill="#0058CE"/>
<path d="M27.8406 140.173C27.7675 140.174 27.696 140.152 27.6365 140.109C27.5771 140.067 27.533 140.006 27.5106 139.937C27.4882 139.867 27.4887 139.792 27.5121 139.723C27.5355 139.654 27.5805 139.594 27.6406 139.552L29.8786 137.99C29.9529 137.938 30.0447 137.918 30.1339 137.934C30.223 137.95 30.3022 138 30.3541 138.075C30.4059 138.149 30.4261 138.241 30.4103 138.33C30.3944 138.419 30.3439 138.498 30.2696 138.55L28.0316 140.112C27.9754 140.151 27.9089 140.172 27.8406 140.173Z" fill="#0058CE"/>
<path d="M61.4491 53.7523H57.3561C57.2656 53.7523 57.1789 53.7164 57.1149 53.6525C57.051 53.5885 57.0151 53.5018 57.0151 53.4113C57.0151 53.3209 57.051 53.2341 57.1149 53.1702C57.1789 53.1062 57.2656 53.0703 57.3561 53.0703H61.4491C61.5395 53.0703 61.6262 53.1062 61.6902 53.1702C61.7541 53.2341 61.7901 53.3209 61.7901 53.4113C61.7901 53.5018 61.7541 53.5885 61.6902 53.6525C61.6262 53.7164 61.5395 53.7523 61.4491 53.7523ZM53.2641 53.7523H49.1711C49.0806 53.7523 48.9939 53.7164 48.9299 53.6525C48.866 53.5885 48.8301 53.5018 48.8301 53.4113C48.8301 53.3209 48.866 53.2341 48.9299 53.1702C48.9939 53.1062 49.0806 53.0703 49.1711 53.0703H53.2651C53.3555 53.0703 53.4423 53.1062 53.5062 53.1702C53.5702 53.2341 53.6061 53.3209 53.6061 53.4113C53.6061 53.5018 53.5702 53.5885 53.5062 53.6525C53.4423 53.7164 53.3545 53.7523 53.2641 53.7523Z" fill="#0058CE"/>
<path d="M134.154 14.3944H130.061C129.971 14.3944 129.884 14.3584 129.82 14.2945C129.756 14.2305 129.72 14.1438 129.72 14.0534C129.72 13.963 129.756 13.8762 129.82 13.8123C129.884 13.7483 129.971 13.7124 130.061 13.7124H134.154C134.244 13.7124 134.331 13.7483 134.395 13.8123C134.459 13.8762 134.495 13.963 134.495 14.0534C134.495 14.1438 134.459 14.2305 134.395 14.2945C134.331 14.3584 134.244 14.3944 134.154 14.3944ZM125.969 14.3944H121.877C121.787 14.3944 121.7 14.3584 121.636 14.2945C121.572 14.2305 121.536 14.1438 121.536 14.0534C121.536 13.963 121.572 13.8762 121.636 13.8123C121.7 13.7483 121.787 13.7124 121.877 13.7124H125.97C126.06 13.7124 126.147 13.7483 126.211 13.8123C126.275 13.8762 126.311 13.963 126.311 14.0534C126.311 14.1438 126.275 14.2305 126.211 14.2945C126.147 14.3584 126.059 14.3944 125.969 14.3944ZM117.784 14.3944H113.691C113.601 14.3944 113.514 14.3584 113.45 14.2945C113.386 14.2305 113.35 14.1438 113.35 14.0534C113.35 13.963 113.386 13.8762 113.45 13.8123C113.514 13.7483 113.601 13.7124 113.691 13.7124H117.784C117.874 13.7124 117.961 13.7483 118.025 13.8123C118.089 13.8762 118.125 13.963 118.125 14.0534C118.125 14.1438 118.089 14.2305 118.025 14.2945C117.961 14.3584 117.874 14.3944 117.784 14.3944ZM109.599 14.3944H105.507C105.417 14.3944 105.33 14.3584 105.266 14.2945C105.202 14.2305 105.166 14.1438 105.166 14.0534C105.166 13.963 105.202 13.8762 105.266 13.8123C105.33 13.7483 105.417 13.7124 105.507 13.7124H109.597C109.687 13.7124 109.774 13.7483 109.838 13.8123C109.902 13.8762 109.938 13.963 109.938 14.0534C109.938 14.1438 109.902 14.2305 109.838 14.2945C109.774 14.3584 109.687 14.3944 109.597 14.3944H109.599Z" fill="#0058CE"/>
<path d="M135.488 16.3142C135.418 16.3144 135.348 16.2925 135.291 16.2516C135.233 16.2107 135.189 16.1528 135.166 16.0859C135.142 16.0191 135.14 15.9466 135.16 15.8786C135.18 15.8105 135.22 15.7503 135.275 15.7062L137.353 14.0522L135.371 12.4052C135.336 12.377 135.306 12.342 135.284 12.3022C135.262 12.2624 135.248 12.2186 135.243 12.1734C135.239 12.1281 135.243 12.0824 135.256 12.0388C135.269 11.9953 135.291 11.9548 135.32 11.9198C135.349 11.8848 135.385 11.856 135.425 11.835C135.465 11.814 135.509 11.8012 135.555 11.7975C135.6 11.7938 135.646 11.7992 135.689 11.8134C135.732 11.8276 135.772 11.8504 135.806 11.8802L138.106 13.7952C138.145 13.8276 138.177 13.8684 138.198 13.9144C138.219 13.9604 138.23 14.0106 138.23 14.0614C138.229 14.1121 138.217 14.1621 138.195 14.2077C138.173 14.2534 138.141 14.2935 138.101 14.3252L135.695 16.2402C135.636 16.2871 135.564 16.3131 135.488 16.3142Z" fill="#0058CE"/>
<path d="M183.358 68.4893C183.223 68.4895 183.09 68.4631 182.966 68.4116C182.842 68.3601 182.73 68.2846 182.635 68.1893L182.235 67.7892C182.043 67.5973 181.936 67.3371 181.936 67.0658C181.936 66.7945 182.043 66.5343 182.235 66.3423L182.635 65.9423C182.73 65.8471 182.843 65.7716 182.967 65.7201C183.091 65.6686 183.224 65.6421 183.358 65.6421C183.493 65.6421 183.626 65.6686 183.75 65.7201C183.874 65.7716 183.987 65.8471 184.082 65.9423L184.482 66.3423C184.673 66.5344 184.781 66.7946 184.781 67.0658C184.781 67.337 184.673 67.5971 184.482 67.7892L184.082 68.1893C183.987 68.2846 183.874 68.3603 183.75 68.4117C183.626 68.4632 183.492 68.4896 183.358 68.4893ZM183.358 66.3213C183.313 66.3212 183.269 66.3299 183.227 66.3471C183.186 66.3643 183.148 66.3895 183.117 66.4213L182.717 66.8213C182.653 66.8854 182.617 66.9723 182.617 67.0628C182.617 67.1533 182.653 67.2401 182.717 67.3043L183.117 67.7043C183.148 67.736 183.186 67.7612 183.227 67.7784C183.269 67.7956 183.313 67.8044 183.358 67.8044C183.403 67.8044 183.447 67.7956 183.488 67.7784C183.53 67.7612 183.567 67.736 183.599 67.7043L183.999 67.3043C184.063 67.2401 184.099 67.1533 184.099 67.0628C184.099 66.9723 184.063 66.8854 183.999 66.8213L183.599 66.4213C183.567 66.3897 183.53 66.3648 183.488 66.3478C183.447 66.3308 183.403 66.3211 183.358 66.3213Z" fill="#0058CE"/>
<path d="M187.214 68.4902C187.08 68.4905 186.947 68.4642 186.822 68.4127C186.698 68.3612 186.585 68.2855 186.49 68.1901L186.09 67.7902C185.899 67.5982 185.791 67.3379 185.791 67.0667C185.791 66.7954 185.899 66.5351 186.09 66.3431L186.49 65.9432C186.685 65.7572 186.944 65.6533 187.214 65.6533C187.483 65.6533 187.742 65.7572 187.937 65.9432L188.337 66.3431C188.529 66.5351 188.637 66.7954 188.637 67.0667C188.637 67.3379 188.529 67.5982 188.337 67.7902L187.937 68.1901C187.843 68.2855 187.73 68.3612 187.606 68.4127C187.482 68.4642 187.349 68.4905 187.214 68.4902ZM187.214 66.3221C187.17 66.322 187.125 66.3308 187.084 66.348C187.042 66.3651 187.005 66.3903 186.973 66.4221L186.573 66.8221C186.509 66.8863 186.474 66.9731 186.474 67.0637C186.474 67.1542 186.509 67.2411 186.573 67.3052L186.973 67.7051C187.038 67.7676 187.124 67.8025 187.214 67.8025C187.304 67.8025 187.391 67.7676 187.455 67.7051L187.855 67.3052C187.919 67.2411 187.955 67.1542 187.955 67.0637C187.955 66.9731 187.919 66.8863 187.855 66.8221L187.455 66.4221C187.424 66.3903 187.386 66.3651 187.345 66.348C187.304 66.3308 187.259 66.322 187.214 66.3221Z" fill="#0058CE"/>
<path d="M191.075 68.4902C190.941 68.4905 190.808 68.4642 190.683 68.4127C190.559 68.3612 190.446 68.2855 190.351 68.1901L189.951 67.7902C189.76 67.598 189.652 67.3379 189.652 67.0667C189.652 66.7954 189.76 66.5353 189.951 66.3431L190.351 65.9432C190.546 65.7572 190.805 65.6533 191.075 65.6533C191.344 65.6533 191.603 65.7572 191.798 65.9432L192.198 66.3431C192.39 66.5353 192.497 66.7954 192.497 67.0667C192.497 67.3379 192.39 67.598 192.198 67.7902L191.798 68.1901C191.704 68.2855 191.591 68.3612 191.467 68.4127C191.343 68.4642 191.21 68.4905 191.075 68.4902ZM191.075 66.3221C191.03 66.3221 190.986 66.3309 190.945 66.348C190.903 66.3652 190.866 66.3904 190.834 66.4221L190.434 66.8221C190.402 66.8538 190.377 66.8915 190.36 66.9329C190.343 66.9744 190.334 67.0188 190.334 67.0637C190.334 67.1085 190.343 67.153 190.36 67.1944C190.377 67.2358 190.402 67.2735 190.434 67.3052L190.834 67.7051C190.899 67.7674 190.985 67.8021 191.075 67.8021C191.165 67.8021 191.251 67.7674 191.316 67.7051L191.716 67.3052C191.748 67.2735 191.773 67.2358 191.79 67.1944C191.808 67.153 191.817 67.1085 191.817 67.0637C191.817 67.0188 191.808 66.9744 191.79 66.9329C191.773 66.8915 191.748 66.8538 191.716 66.8221L191.316 66.4221C191.285 66.3903 191.247 66.3651 191.206 66.348C191.164 66.3308 191.12 66.322 191.075 66.3221Z" fill="#0058CE"/>
<path d="M43.538 87.3054C43.4965 87.3053 43.4555 87.2961 43.418 87.2784C41.4815 86.3883 39.8202 84.9935 38.6084 83.2402C37.3966 81.4869 36.6789 79.4399 36.5307 77.3138C36.3825 75.1876 36.8092 73.0609 37.7659 71.1564C38.7227 69.252 40.1743 67.6401 41.9686 66.4898C43.7628 65.3396 45.8336 64.6934 47.9636 64.6191C50.0936 64.5447 52.2043 65.0448 54.0744 66.0671C55.9445 67.0894 57.505 68.5961 58.5923 70.4292C59.6796 72.2622 60.2536 74.3542 60.254 76.4854C60.254 76.5621 60.2235 76.6356 60.1693 76.6898C60.1151 76.744 60.0416 76.7744 59.965 76.7744C59.8883 76.7744 59.8148 76.744 59.7606 76.6898C59.7064 76.6356 59.676 76.5621 59.676 76.4854C59.676 74.4573 59.1303 72.4665 58.0959 70.722C57.0615 68.9774 55.5767 67.5434 53.7973 66.5704C52.0178 65.5974 50.0092 65.1212 47.9823 65.1919C45.9554 65.2625 43.9849 65.8774 42.2775 66.972C40.5701 68.0665 39.1887 69.6005 38.2783 71.4128C37.368 73.2251 36.9621 75.2491 37.1034 77.2723C37.2447 79.2955 37.9279 81.2434 39.0814 82.9116C40.2348 84.5798 41.816 85.9068 43.6589 86.7535C43.7191 86.7809 43.768 86.828 43.7976 86.8871C43.8272 86.9462 43.8356 87.0137 43.8215 87.0783C43.8073 87.1429 43.7715 87.2006 43.7199 87.242C43.6683 87.2833 43.6041 87.3057 43.538 87.3054Z" fill="#0058CE"/>
<path d="M59.9095 76.9665L57.2375 75.0475C57.2049 75.026 57.1771 74.9983 57.1556 74.9658C57.134 74.9334 57.1193 74.8969 57.1122 74.8586C57.1051 74.8203 57.1059 74.781 57.1144 74.743C57.1229 74.705 57.139 74.6691 57.1617 74.6375C57.1844 74.6059 57.2133 74.5792 57.2466 74.559C57.2799 74.5388 57.317 74.5256 57.3555 74.52C57.3941 74.5145 57.4334 74.5168 57.471 74.5269C57.5086 74.5369 57.5438 74.5545 57.5745 74.5785L60.0375 76.3475L62.0815 74.1025C62.107 74.0744 62.1379 74.0516 62.1722 74.0354C62.2066 74.0192 62.2438 74.01 62.2817 74.0081C62.3196 74.0063 62.3575 74.012 62.3933 74.0248C62.429 74.0376 62.4619 74.0574 62.49 74.083C62.5181 74.1085 62.5409 74.1393 62.557 74.1737C62.5732 74.208 62.5825 74.2452 62.5843 74.2832C62.5861 74.3211 62.5804 74.3591 62.5676 74.3948C62.5548 74.4305 62.535 74.4634 62.5095 74.4915L60.2915 76.9265L59.9095 76.9665Z" fill="#0058CE"/>
<path d="M48.4589 75.9222C48.3823 75.9222 48.3088 75.8918 48.2546 75.8376C48.2004 75.7834 48.1699 75.7099 48.1699 75.6332V69.6542C48.1699 69.6163 48.1774 69.5787 48.1919 69.5436C48.2064 69.5086 48.2277 69.4767 48.2546 69.4499C48.2814 69.4231 48.3133 69.4018 48.3483 69.3873C48.3834 69.3727 48.421 69.3652 48.4589 69.3652C48.4969 69.3652 48.5345 69.3727 48.5695 69.3873C48.6046 69.4018 48.6364 69.4231 48.6633 69.4499C48.6901 69.4767 48.7114 69.5086 48.7259 69.5436C48.7404 69.5787 48.7479 69.6163 48.7479 69.6542V75.6323C48.7481 75.6703 48.7407 75.708 48.7262 75.7432C48.7117 75.7783 48.6905 75.8103 48.6636 75.8373C48.6368 75.8642 48.6048 75.8856 48.5697 75.9001C48.5346 75.9147 48.497 75.9222 48.4589 75.9222Z" fill="#0058CE"/>
<path d="M55.2283 78.2513H50.4433C50.3667 78.2513 50.2932 78.2209 50.239 78.1667C50.1848 78.1126 50.1543 78.039 50.1543 77.9623C50.1543 77.8857 50.1848 77.8122 50.239 77.758C50.2932 77.7038 50.3667 77.6733 50.4433 77.6733H55.2283C55.305 77.6733 55.3785 77.7038 55.4327 77.758C55.4869 77.8122 55.5173 77.8857 55.5173 77.9623C55.5173 78.039 55.4869 78.1126 55.4327 78.1667C55.3785 78.2209 55.305 78.2513 55.2283 78.2513Z" fill="#0058CE"/>
<path d="M48.4576 80.2404C48.0079 80.2404 47.5682 80.107 47.1943 79.8572C46.8203 79.6073 46.5288 79.2521 46.3567 78.8366C46.1846 78.4211 46.1395 77.9639 46.2273 77.5228C46.315 77.0816 46.5316 76.6765 46.8497 76.3585C47.1677 76.0404 47.5728 75.8238 48.014 75.7361C48.4551 75.6483 48.9123 75.6934 49.3278 75.8655C49.7433 76.0376 50.0985 76.329 50.3484 76.703C50.5982 77.077 50.7316 77.5166 50.7316 77.9664C50.7311 78.5693 50.4913 79.1474 50.065 79.5738C49.6386 80.0001 49.0606 80.2399 48.4576 80.2404ZM48.4576 76.2704C48.1214 76.2704 47.7927 76.3701 47.5132 76.5569C47.2336 76.7437 47.0157 77.0092 46.887 77.3198C46.7583 77.6305 46.7247 77.9723 46.7903 78.3021C46.8559 78.6318 47.0178 78.9347 47.2555 79.1725C47.4933 79.4102 47.7962 79.5722 48.126 79.6378C48.4557 79.7033 48.7976 79.6697 49.1082 79.541C49.4188 79.4123 49.6843 79.1944 49.8711 78.9149C50.0579 78.6353 50.1576 78.3066 50.1576 77.9704C50.1576 77.5195 49.9785 77.0871 49.6597 76.7683C49.3409 76.4495 48.9085 76.2704 48.4576 76.2704Z" fill="#0058CE"/>
<path d="M189.264 96.0365H185.171C185.08 96.0365 184.993 96.0006 184.929 95.9366C184.865 95.8727 184.83 95.7859 184.83 95.6955C184.83 95.6051 184.865 95.5184 184.929 95.4544C184.993 95.3905 185.08 95.3545 185.171 95.3545H189.264C189.354 95.3545 189.441 95.3905 189.505 95.4544C189.569 95.5184 189.604 95.6051 189.604 95.6955C189.604 95.7859 189.569 95.8727 189.505 95.9366C189.441 96.0006 189.354 96.0365 189.264 96.0365ZM181.079 96.0365H176.986C176.895 96.0365 176.808 96.0006 176.744 95.9366C176.68 95.8727 176.645 95.7859 176.645 95.6955C176.645 95.6051 176.68 95.5184 176.744 95.4544C176.808 95.3905 176.895 95.3545 176.986 95.3545H181.079C181.169 95.3545 181.256 95.3905 181.32 95.4544C181.384 95.5184 181.42 95.6051 181.42 95.6955C181.42 95.7859 181.384 95.8727 181.32 95.9366C181.256 96.0006 181.169 96.0365 181.079 96.0365Z" fill="#0058CE"/>
<path d="M53.4366 10.8525C53.3021 10.8527 53.1689 10.8263 53.0446 10.7748C52.9204 10.7233 52.8075 10.6477 52.7126 10.5524L52.3126 10.1525C52.1212 9.96035 52.0137 9.70017 52.0137 9.42896C52.0137 9.15774 52.1212 8.89756 52.3126 8.70544L52.7126 8.30548C52.905 8.11453 53.165 8.00732 53.4361 8.00732C53.7072 8.00732 53.9672 8.11453 54.1596 8.30548L54.5596 8.70544C54.7511 8.89756 54.8585 9.15774 54.8585 9.42896C54.8585 9.70017 54.7511 9.96035 54.5596 10.1525L54.1596 10.5524C54.0648 10.6475 53.9521 10.723 53.828 10.7745C53.7039 10.826 53.5709 10.8525 53.4366 10.8525ZM53.4366 8.68542C53.3916 8.68533 53.3471 8.69414 53.3056 8.7113C53.2641 8.72847 53.2263 8.75367 53.1946 8.78546L52.7946 9.18542C52.731 9.24949 52.6953 9.33615 52.6953 9.42645C52.6953 9.51675 52.731 9.60341 52.7946 9.66748L53.1946 10.0674C53.2585 10.1313 53.3452 10.1672 53.4356 10.1672C53.526 10.1672 53.6127 10.1313 53.6766 10.0674L54.0766 9.66748C54.1402 9.60341 54.176 9.51675 54.176 9.42645C54.176 9.33615 54.1402 9.24949 54.0766 9.18542L53.6766 8.78546C53.6454 8.75337 53.608 8.72776 53.5668 8.71008C53.5257 8.69241 53.4814 8.68299 53.4366 8.68243V8.68542Z" fill="#0058CE"/>
<path d="M57.3004 10.8523C57.1658 10.8527 57.0325 10.8263 56.9083 10.7748C56.784 10.7233 56.6712 10.6476 56.5764 10.5522L56.1763 10.1523C55.9846 9.96029 55.877 9.70007 55.877 9.42877C55.877 9.15747 55.9846 8.89725 56.1763 8.70526L56.5764 8.3053C56.7684 8.11416 57.0283 8.00684 57.2993 8.00684C57.5703 8.00684 57.8303 8.11416 58.0223 8.3053L58.4223 8.70526C58.614 8.89725 58.7217 9.15747 58.7217 9.42877C58.7217 9.70007 58.614 9.96029 58.4223 10.1523L58.0223 10.5522C57.9277 10.6474 57.8152 10.7229 57.6913 10.7744C57.5674 10.8259 57.4345 10.8524 57.3004 10.8523ZM57.3004 8.68427C57.2554 8.68417 57.2109 8.69298 57.1694 8.71014C57.1278 8.72731 57.0901 8.75245 57.0583 8.78424L56.6583 9.18427C56.5947 9.24833 56.559 9.335 56.559 9.42529C56.559 9.51559 56.5947 9.60219 56.6583 9.66626L57.0583 10.0663C57.123 10.1287 57.2094 10.1636 57.2993 10.1636C57.3892 10.1636 57.4757 10.1287 57.5403 10.0663L57.9403 9.66626C58.0039 9.60219 58.0397 9.51559 58.0397 9.42529C58.0397 9.335 58.0039 9.24833 57.9403 9.18427L57.5403 8.78424C57.5091 8.75219 57.4717 8.72668 57.4305 8.70917C57.3893 8.69166 57.3451 8.68251 57.3004 8.68225V8.68427Z" fill="#0058CE"/>
<path d="M61.1591 10.8524C61.0247 10.8526 60.8916 10.8263 60.7675 10.7748C60.6434 10.7233 60.5308 10.6476 60.4361 10.5523L60.0361 10.1523C59.941 10.0573 59.8656 9.94451 59.8142 9.82037C59.7628 9.69623 59.7363 9.56321 59.7363 9.42883C59.7363 9.29446 59.7628 9.16137 59.8142 9.03723C59.8656 8.91309 59.941 8.80032 60.0361 8.70532L60.4361 8.30536C60.6283 8.11416 60.8884 8.00684 61.1595 8.00684C61.4307 8.00684 61.6908 8.11416 61.8831 8.30536L62.2831 8.70532C62.3781 8.80032 62.4535 8.91309 62.5049 9.03723C62.5564 9.16137 62.5828 9.29446 62.5828 9.42883C62.5828 9.56321 62.5564 9.69623 62.5049 9.82037C62.4535 9.94451 62.3781 10.0573 62.2831 10.1523L61.8831 10.5523C61.7882 10.6478 61.6754 10.7235 61.5511 10.775C61.4269 10.8265 61.2936 10.8528 61.1591 10.8524ZM61.1591 8.68433C61.0683 8.68435 60.9813 8.72028 60.9171 8.7843L60.5171 9.18433C60.4532 9.24827 60.4173 9.33498 60.4173 9.42535C60.4173 9.51573 60.4532 9.60238 60.5171 9.66632L60.9171 10.0663C60.982 10.1283 61.0683 10.1629 61.1581 10.1629C61.2478 10.1629 61.3341 10.1283 61.399 10.0663L61.7991 9.66632C61.8629 9.60238 61.8988 9.51573 61.8988 9.42535C61.8988 9.33498 61.8629 9.24827 61.7991 9.18433L61.399 8.7843C61.3678 8.75225 61.3305 8.72674 61.2893 8.70923C61.2481 8.69172 61.2038 8.68257 61.1591 8.68231V8.68433Z" fill="#0058CE"/>
<path d="M67.4644 158.828C67.3697 158.828 67.2789 158.791 67.212 158.724C67.145 158.657 67.1074 158.566 67.1074 158.471V157.995C67.1074 157.9 67.145 157.81 67.212 157.743C67.2789 157.676 67.3697 157.638 67.4644 157.638C67.5591 157.638 67.6499 157.676 67.7169 157.743C67.7838 157.81 67.8214 157.9 67.8214 157.995V158.471C67.8214 158.566 67.7838 158.657 67.7169 158.724C67.6499 158.791 67.5591 158.828 67.4644 158.828Z" fill="#1566D2"/>
<path d="M67.4644 164.41C67.3697 164.41 67.2789 164.373 67.212 164.306C67.145 164.239 67.1074 164.148 67.1074 164.053V163.122C67.1074 163.027 67.145 162.937 67.212 162.87C67.2789 162.803 67.3697 162.765 67.4644 162.765C67.5591 162.765 67.6499 162.803 67.7169 162.87C67.7838 162.937 67.8214 163.027 67.8214 163.122V164.053C67.8214 164.148 67.7838 164.239 67.7169 164.306C67.6499 164.373 67.5591 164.41 67.4644 164.41ZM67.4644 161.617C67.3697 161.617 67.2789 161.58 67.212 161.513C67.145 161.446 67.1074 161.355 67.1074 161.26V160.33C67.1074 160.235 67.145 160.145 67.212 160.078C67.2789 160.011 67.3697 159.973 67.4644 159.973C67.5591 159.973 67.6499 160.011 67.7169 160.078C67.7838 160.145 67.8214 160.235 67.8214 160.33V161.26C67.8196 161.354 67.7812 161.443 67.7144 161.508C67.6477 161.574 67.5579 161.61 67.4644 161.61V161.617Z" fill="#1566D2"/>
<path d="M67.4644 166.745C67.3697 166.745 67.2789 166.708 67.212 166.641C67.145 166.574 67.1074 166.483 67.1074 166.388V165.912C67.1074 165.817 67.145 165.727 67.212 165.66C67.2789 165.593 67.3697 165.555 67.4644 165.555C67.5591 165.555 67.6499 165.593 67.7169 165.66C67.7838 165.727 67.8214 165.817 67.8214 165.912V166.388C67.8214 166.483 67.7838 166.574 67.7169 166.641C67.6499 166.708 67.5591 166.745 67.4644 166.745Z" fill="#1566D2"/>
<path d="M45.8458 168.434H45.3668C45.2721 168.434 45.1813 168.397 45.1143 168.33C45.0474 168.263 45.0098 168.172 45.0098 168.077C45.0098 167.983 45.0474 167.892 45.1143 167.825C45.1813 167.758 45.2721 167.72 45.3668 167.72H45.8428C45.9375 167.72 46.0282 167.758 46.0952 167.825C46.1622 167.892 46.1998 167.983 46.1998 168.077C46.1998 168.172 46.1622 168.263 46.0952 168.33C46.0282 168.397 45.9375 168.434 45.8428 168.434H45.8458Z" fill="#1566D2"/>
<path d="M63.3545 168.434H62.3815C62.2869 168.434 62.1961 168.397 62.1291 168.33C62.0622 168.263 62.0245 168.172 62.0245 168.077C62.0245 167.983 62.0622 167.892 62.1291 167.825C62.1961 167.758 62.2869 167.72 62.3815 167.72H63.3545C63.4492 167.72 63.54 167.758 63.607 167.825C63.6739 167.892 63.7115 167.983 63.7115 168.077C63.7115 168.172 63.6739 168.263 63.607 168.33C63.54 168.397 63.4492 168.434 63.3545 168.434ZM60.4355 168.434H59.4635C59.3689 168.434 59.2781 168.397 59.2111 168.33C59.1442 168.263 59.1065 168.172 59.1065 168.077C59.1065 167.983 59.1442 167.892 59.2111 167.825C59.2781 167.758 59.3689 167.72 59.4635 167.72H60.4355C60.5302 167.72 60.621 167.758 60.688 167.825C60.7549 167.892 60.7925 167.983 60.7925 168.077C60.7925 168.172 60.7549 168.263 60.688 168.33C60.621 168.397 60.5302 168.434 60.4355 168.434ZM57.5185 168.434H56.5445C56.4499 168.434 56.359 168.397 56.2921 168.33C56.2251 168.263 56.1875 168.172 56.1875 168.077C56.1875 167.983 56.2251 167.892 56.2921 167.825C56.359 167.758 56.4499 167.72 56.5445 167.72H57.5175C57.6122 167.72 57.703 167.758 57.77 167.825C57.8369 167.892 57.8745 167.983 57.8745 168.077C57.8745 168.172 57.8369 168.263 57.77 168.33C57.703 168.397 57.6132 168.434 57.5185 168.434ZM54.6005 168.434H53.6285C53.5339 168.434 53.4431 168.397 53.3761 168.33C53.3092 168.263 53.2715 168.172 53.2715 168.077C53.2715 167.983 53.3092 167.892 53.3761 167.825C53.4431 167.758 53.5339 167.72 53.6285 167.72H54.6005C54.6952 167.72 54.786 167.758 54.853 167.825C54.9199 167.892 54.9576 167.983 54.9576 168.077C54.9576 168.172 54.9199 168.263 54.853 168.33C54.786 168.397 54.6952 168.434 54.6005 168.434ZM51.6825 168.434H50.7095C50.6149 168.434 50.5241 168.397 50.4571 168.33C50.3902 168.263 50.3525 168.172 50.3525 168.077C50.3525 167.983 50.3902 167.892 50.4571 167.825C50.5241 167.758 50.6149 167.72 50.7095 167.72H51.6825C51.7772 167.72 51.868 167.758 51.935 167.825C52.0019 167.892 52.0396 167.983 52.0396 168.077C52.0396 168.172 52.0019 168.263 51.935 168.33C51.868 168.397 51.7772 168.434 51.6825 168.434ZM48.7645 168.434H47.7925C47.6979 168.434 47.6071 168.397 47.5401 168.33C47.4731 168.263 47.4355 168.172 47.4355 168.077C47.4355 167.983 47.4731 167.892 47.5401 167.825C47.6071 167.758 47.6979 167.72 47.7925 167.72H48.7645C48.8592 167.72 48.95 167.758 49.017 167.825C49.0839 167.892 49.1215 167.983 49.1215 168.077C49.1215 168.172 49.0839 168.263 49.017 168.33C48.95 168.397 48.8592 168.434 48.7645 168.434Z" fill="#1566D2"/>
<path d="M65.7764 168.434H65.3004C65.2057 168.434 65.1149 168.397 65.0479 168.33C64.981 168.263 64.9434 168.172 64.9434 168.077C64.9434 167.983 64.981 167.892 65.0479 167.825C65.1149 167.758 65.2057 167.72 65.3004 167.72H65.7764C65.871 167.72 65.9618 167.758 66.0288 167.825C66.0957 167.892 66.1334 167.983 66.1334 168.077C66.1334 168.172 66.0957 168.263 66.0288 168.33C65.9618 168.397 65.871 168.434 65.7764 168.434Z" fill="#1566D2"/>
<path d="M67.464 170.123C67.0593 170.123 66.6637 170.003 66.3273 169.778C65.9908 169.554 65.7286 169.234 65.5737 168.86C65.4189 168.486 65.3783 168.075 65.4573 167.678C65.5362 167.281 65.7311 166.917 66.0172 166.631C66.3034 166.344 66.6679 166.15 67.0648 166.071C67.4617 165.992 67.8731 166.032 68.2469 166.187C68.6208 166.342 68.9403 166.604 69.1652 166.941C69.39 167.277 69.51 167.673 69.51 168.077C69.5094 168.62 69.2937 169.14 68.9101 169.523C68.5265 169.907 68.0064 170.123 67.464 170.123ZM67.464 166.745C67.2005 166.745 66.943 166.823 66.7239 166.97C66.5049 167.116 66.3342 167.324 66.2334 167.568C66.1325 167.811 66.1062 168.079 66.1576 168.337C66.209 168.595 66.3358 168.833 66.5221 169.019C66.7084 169.205 66.9457 169.332 67.2041 169.384C67.4625 169.435 67.7303 169.409 67.9737 169.308C68.2171 169.207 68.4251 169.036 68.5715 168.817C68.7178 168.598 68.796 168.341 68.796 168.077C68.7957 167.724 68.6553 167.385 68.4055 167.136C68.1558 166.886 67.8172 166.746 67.464 166.745Z" fill="#1566D2"/>
<path d="M81.5967 168.434H81.1207C81.026 168.434 80.9352 168.397 80.8682 168.33C80.8013 168.263 80.7637 168.172 80.7637 168.077C80.7637 167.983 80.8013 167.892 80.8682 167.825C80.9352 167.758 81.026 167.72 81.1207 167.72H81.5967C81.6913 167.72 81.7822 167.758 81.8491 167.825C81.9161 167.892 81.9537 167.983 81.9537 168.077C81.9537 168.172 81.9161 168.263 81.8491 168.33C81.7822 168.397 81.6913 168.434 81.5967 168.434Z" fill="#1566D2"/>
<path d="M90.0611 168.434H89.1211C89.0265 168.434 88.9356 168.397 88.8687 168.33C88.8017 168.263 88.7641 168.172 88.7641 168.077C88.7641 167.983 88.8017 167.892 88.8687 167.825C88.9356 167.758 89.0265 167.72 89.1211 167.72H90.0611C90.1558 167.72 90.2466 167.758 90.3136 167.825C90.3805 167.892 90.4181 167.983 90.4181 168.077C90.4181 168.172 90.3805 168.263 90.3136 168.33C90.2466 168.397 90.1558 168.434 90.0611 168.434ZM87.2391 168.434H86.2981C86.2034 168.434 86.1127 168.397 86.0457 168.33C85.9787 168.263 85.9411 168.172 85.9411 168.077C85.9411 167.983 85.9787 167.892 86.0457 167.825C86.1127 167.758 86.2034 167.72 86.2981 167.72H87.2391C87.3338 167.72 87.4246 167.758 87.4916 167.825C87.5585 167.892 87.5961 167.983 87.5961 168.077C87.5961 168.172 87.5585 168.263 87.4916 168.33C87.4246 168.397 87.3338 168.434 87.2391 168.434ZM84.4181 168.434H83.4761C83.3815 168.434 83.2906 168.397 83.2237 168.33C83.1567 168.263 83.1191 168.172 83.1191 168.077C83.1191 167.983 83.1567 167.892 83.2237 167.825C83.2906 167.758 83.3815 167.72 83.4761 167.72H84.4181C84.5128 167.72 84.6036 167.758 84.6706 167.825C84.7375 167.892 84.7751 167.983 84.7751 168.077C84.7751 168.172 84.7375 168.263 84.6706 168.33C84.6036 168.397 84.5128 168.434 84.4181 168.434Z" fill="#1566D2"/>
<path d="M92.4248 168.434H91.9488C91.8541 168.434 91.7633 168.397 91.6964 168.33C91.6294 168.263 91.5918 168.172 91.5918 168.077C91.5918 167.983 91.6294 167.892 91.6964 167.825C91.7633 167.758 91.8541 167.72 91.9488 167.72H92.4248C92.5195 167.72 92.6103 167.758 92.6772 167.825C92.7442 167.892 92.7818 167.983 92.7818 168.077C92.7818 168.172 92.7442 168.263 92.6772 168.33C92.6103 168.397 92.5195 168.434 92.4248 168.434Z" fill="#1566D2"/>
<path d="M69.6299 168.434H69.1539C69.0592 168.434 68.9684 168.397 68.9014 168.33C68.8345 168.263 68.7969 168.172 68.7969 168.077C68.7969 167.983 68.8345 167.892 68.9014 167.825C68.9684 167.758 69.0592 167.72 69.1539 167.72H69.6299C69.7245 167.72 69.8154 167.758 69.8823 167.825C69.9493 167.892 69.9869 167.983 69.9869 168.077C69.9869 168.172 69.9493 168.263 69.8823 168.33C69.8154 168.397 69.7245 168.434 69.6299 168.434Z" fill="#1566D2"/>
<path d="M72.1324 168.434H71.2984C71.2037 168.434 71.1129 168.397 71.046 168.33C70.979 168.263 70.9414 168.172 70.9414 168.077C70.9414 167.983 70.979 167.892 71.046 167.825C71.1129 167.758 71.2037 167.72 71.2984 167.72H72.1324C72.2271 167.72 72.3179 167.758 72.3848 167.825C72.4518 167.892 72.4894 167.983 72.4894 168.077C72.4894 168.172 72.4518 168.263 72.3848 168.33C72.3179 168.397 72.2271 168.434 72.1324 168.434Z" fill="#1566D2"/>
<path d="M74.2783 168.434H73.8023C73.7076 168.434 73.6168 168.397 73.5499 168.33C73.4829 168.263 73.4453 168.172 73.4453 168.077C73.4453 167.983 73.4829 167.892 73.5499 167.825C73.6168 167.758 73.7076 167.72 73.8023 167.72H74.2783C74.373 167.72 74.4638 167.758 74.5307 167.825C74.5977 167.892 74.6353 167.983 74.6353 168.077C74.6353 168.172 74.5977 168.263 74.5307 168.33C74.4638 168.397 74.373 168.434 74.2783 168.434Z" fill="#1566D2"/>
<path d="M77.7224 150.743C75.6228 150.743 73.5704 150.12 71.8248 148.954C70.0791 147.787 68.7186 146.129 67.9152 144.189C67.1119 142.249 66.9018 140.115 67.3115 138.056C67.7213 135.996 68.7324 134.105 70.2171 132.62C71.7018 131.136 73.5934 130.125 75.6527 129.715C77.712 129.306 79.8465 129.516 81.7862 130.319C83.726 131.123 85.3839 132.484 86.5504 134.229C87.7168 135.975 88.3394 138.028 88.3394 140.127C88.3363 142.942 87.2166 145.64 85.2262 147.631C83.2358 149.621 80.5372 150.74 77.7224 150.743ZM77.7224 130.225C75.7644 130.225 73.8503 130.806 72.2223 131.894C70.5942 132.981 69.3253 134.528 68.576 136.337C67.8267 138.146 67.6307 140.136 68.0126 142.057C68.3946 143.977 69.3375 145.741 70.7221 147.126C72.1066 148.51 73.8706 149.453 75.791 149.835C77.7114 150.217 79.702 150.021 81.511 149.272C83.32 148.522 84.8661 147.253 85.954 145.625C87.0418 143.997 87.6224 142.083 87.6224 140.125C87.6195 137.5 86.5756 134.983 84.7198 133.127C82.8639 131.271 80.3474 130.226 77.7224 130.222V130.225Z" fill="#1566D2"/>
<path d="M77.7253 148.154C76.1371 148.154 74.5846 147.683 73.2641 146.801C71.9436 145.919 70.9143 144.664 70.3066 143.197C69.6988 141.73 69.5398 140.115 69.8496 138.558C70.1594 137 70.9242 135.569 72.0472 134.446C73.1703 133.323 74.6011 132.558 76.1587 132.249C77.7164 131.939 79.331 132.098 80.7983 132.706C82.2656 133.313 83.5197 134.342 84.402 135.663C85.2844 136.984 85.7553 138.536 85.7553 140.124C85.7529 142.253 84.9061 144.294 83.4007 145.8C81.8953 147.305 79.8543 148.152 77.7253 148.154ZM77.7253 132.809C76.2783 132.809 74.8638 133.238 73.6607 134.042C72.4575 134.846 71.5198 135.989 70.9661 137.326C70.4124 138.663 70.2676 140.134 70.55 141.553C70.8323 142.972 71.5292 144.276 72.5525 145.299C73.5757 146.322 74.8794 147.019 76.2986 147.301C77.7179 147.583 79.1889 147.438 80.5257 146.884C81.8625 146.33 83.0051 145.392 83.8088 144.189C84.6126 142.986 85.0415 141.571 85.0413 140.124C85.0381 138.185 84.2662 136.327 82.8947 134.956C81.5232 133.586 79.6642 132.815 77.7253 132.813V132.809Z" fill="#1566D2"/>
<path d="M79.0941 154.011H76.3511C76.2565 154.011 76.1656 153.973 76.0987 153.906C76.0317 153.839 75.9941 153.749 75.9941 153.654V150.381C75.9941 150.286 76.0317 150.195 76.0987 150.129C76.1656 150.062 76.2565 150.024 76.3511 150.024H79.0941C79.1888 150.024 79.2796 150.062 79.3466 150.129C79.4135 150.195 79.4511 150.286 79.4511 150.381V153.654C79.4511 153.749 79.4135 153.839 79.3466 153.906C79.2796 153.973 79.1888 154.011 79.0941 154.011ZM76.7081 153.297H78.7371V150.738H76.7071L76.7081 153.297Z" fill="#1566D2"/>
<path d="M79.0781 154.013H76.3711C76.164 154.013 75.9961 154.181 75.9961 154.388V172.807C75.9961 173.014 76.164 173.182 76.3711 173.182H79.0781C79.2852 173.182 79.4531 173.014 79.4531 172.807V154.388C79.4531 154.181 79.2852 154.013 79.0781 154.013Z" stroke="#0058CE" stroke-width="0.7"/>
<path d="M84.4527 144.172H83.8397C83.7476 144.172 83.6591 144.136 83.5927 144.072C83.5262 144.009 83.4868 143.922 83.4827 143.83C83.3991 141.935 82.6394 140.133 81.3412 138.75C80.0431 137.368 78.2924 136.496 76.4067 136.293C76.334 136.286 76.2653 136.257 76.2098 136.209C76.1543 136.162 76.1148 136.099 76.0967 136.028C75.8267 134.988 75.4254 133.986 74.9027 133.047C74.8798 133.006 74.8653 132.961 74.8598 132.914C74.8544 132.868 74.8582 132.82 74.871 132.775C74.8838 132.73 74.9054 132.688 74.9345 132.651C74.9636 132.614 74.9997 132.584 75.0407 132.561C75.0816 132.538 75.1267 132.523 75.1733 132.518C75.2199 132.513 75.2671 132.516 75.3122 132.529C75.3574 132.542 75.3995 132.564 75.4363 132.593C75.4731 132.622 75.5038 132.658 75.5267 132.699C76.0403 133.619 76.4431 134.597 76.7267 135.612C78.6753 135.878 80.4751 136.8 81.8295 138.226C83.1839 139.652 84.0121 141.497 84.1777 143.457H84.4547C84.5494 143.457 84.6401 143.494 84.7071 143.561C84.774 143.628 84.8117 143.719 84.8117 143.814C84.8117 143.909 84.774 143.999 84.7071 144.066C84.6401 144.133 84.5494 144.171 84.4547 144.171L84.4527 144.172Z" fill="#1566D2"/>
<path d="M85.3301 158.347H81.1011C81.0065 158.347 80.9156 158.309 80.8487 158.243C80.7817 158.176 80.7441 158.085 80.7441 157.99C80.7441 157.895 80.7817 157.805 80.8487 157.738C80.9156 157.671 81.0065 157.633 81.1011 157.633H85.3301C86.9614 157.634 88.5376 157.043 89.7657 155.97C90.9938 154.896 91.7902 153.413 92.0068 151.796C92.2234 150.179 91.8455 148.539 90.9434 147.18C90.0412 145.82 88.6762 144.835 87.1021 144.407C87.0111 144.382 86.9338 144.321 86.8871 144.239C86.8405 144.157 86.8282 144.059 86.8531 143.968C86.8649 143.922 86.8857 143.88 86.9144 143.842C86.943 143.805 86.9788 143.774 87.0198 143.75C87.0607 143.727 87.1059 143.712 87.1527 143.707C87.1995 143.701 87.2469 143.705 87.2921 143.718C89.0309 144.194 90.5381 145.284 91.5339 146.787C92.5297 148.29 92.9465 150.103 92.707 151.889C92.4674 153.676 91.5879 155.315 90.2314 156.503C88.875 157.69 87.1338 158.345 85.3311 158.346L85.3301 158.347Z" fill="#1566D2"/>
<path d="M74.3453 158.348H52.4582C50.6169 158.348 48.841 157.666 47.4734 156.433C46.1059 155.2 45.2437 153.504 45.0535 151.672C44.8633 149.841 45.3585 148.004 46.4435 146.516C47.5285 145.028 49.1263 143.996 50.9282 143.617C49.9158 140.646 49.9693 137.416 51.0796 134.481C52.1899 131.545 54.2877 129.088 57.0127 127.531C59.7376 125.974 62.9197 125.414 66.0123 125.948C69.1049 126.482 71.9151 128.077 73.9602 130.457C74.0219 130.529 74.0525 130.622 74.0454 130.716C74.0383 130.811 73.994 130.898 73.9223 130.96C73.8505 131.022 73.7572 131.052 73.6629 131.045C73.5686 131.038 73.4809 130.994 73.4192 130.922C71.4593 128.642 68.7588 127.125 65.7918 126.637C62.8247 126.149 59.7807 126.722 57.1938 128.254C54.6069 129.787 52.6425 132.182 51.6452 135.019C50.648 137.855 50.6816 140.953 51.7402 143.767C51.759 143.817 51.7664 143.87 51.7619 143.924C51.7574 143.977 51.7411 144.028 51.7142 144.074C51.6872 144.12 51.6504 144.159 51.6063 144.189C51.5622 144.219 51.5119 144.239 51.4593 144.247C49.7787 144.498 48.2555 145.376 47.1951 146.704C46.1347 148.031 45.6157 149.711 45.7423 151.405C45.8689 153.1 46.6316 154.684 47.8775 155.839C49.1233 156.995 50.7601 157.636 52.4593 157.635H74.3462C74.4409 157.635 74.5317 157.673 74.5987 157.74C74.6656 157.807 74.7032 157.897 74.7032 157.992C74.7032 158.087 74.6656 158.178 74.5987 158.245C74.5317 158.311 74.4409 158.349 74.3462 158.349L74.3453 158.348Z" fill="#1566D2"/>
<path d="M30.4509 169.809H42.5509C43.1946 169.796 43.8076 169.531 44.2583 169.072C44.7089 168.612 44.9613 167.994 44.9613 167.35C44.9613 166.706 44.7089 166.088 44.2583 165.628C43.8076 165.168 43.1946 164.903 42.5509 164.89H42.0009C41.9622 164.89 41.9249 164.875 41.8969 164.848C41.869 164.822 41.8525 164.785 41.8509 164.746C41.8204 164.053 41.5424 163.394 41.0674 162.888C40.5924 162.383 39.9518 162.064 39.2619 161.99C39.2315 161.987 39.2028 161.975 39.1796 161.955C39.1564 161.935 39.1397 161.909 39.1319 161.879C38.9712 161.263 38.6866 160.686 38.2956 160.183C37.9046 159.68 37.4154 159.262 36.8577 158.955C36.3 158.647 35.6855 158.457 35.0516 158.394C34.4178 158.332 33.7779 158.399 33.1709 158.592C32.5639 158.785 32.0026 159.099 31.521 159.516C31.0395 159.933 30.6479 160.443 30.37 161.017C30.0921 161.59 29.9338 162.213 29.9048 162.849C29.8757 163.486 29.9765 164.121 30.2009 164.717C30.2084 164.738 30.2112 164.76 30.209 164.783C30.2069 164.805 30.1999 164.826 30.1885 164.845C30.1771 164.864 30.1617 164.881 30.1433 164.893C30.1248 164.906 30.1039 164.914 30.0819 164.917C29.468 165.009 28.9114 165.329 28.524 165.815C28.1366 166.3 27.947 166.913 27.9932 167.532C28.0393 168.151 28.318 168.73 28.7731 169.152C29.2282 169.574 29.8262 169.809 30.4469 169.808L30.4509 169.809Z" stroke="#0058CE" stroke-width="0.7"/>
<path d="M73.2723 118.154H146.562C150.491 118.122 154.248 116.539 157.015 113.749C159.782 110.959 161.334 107.19 161.334 103.261C161.334 99.3317 159.782 95.5618 157.015 92.7722C154.248 89.9827 150.491 88.3993 146.562 88.3671H143.232C142.997 88.3673 142.771 88.2764 142.601 88.1135C142.432 87.9505 142.332 87.7282 142.322 87.4932C142.135 83.2973 140.452 79.3071 137.576 76.2456C134.701 73.184 130.824 71.2537 126.648 70.8042C126.463 70.7861 126.289 70.7116 126.147 70.5909C126.006 70.4702 125.906 70.309 125.859 70.1292C124.884 66.3991 123.16 62.9064 120.792 59.8639C118.424 56.8214 115.462 54.2926 112.085 52.4317C108.709 50.5707 104.989 49.4165 101.152 49.0392C97.315 48.6619 93.4414 49.0695 89.7671 50.2372C86.0927 51.4048 82.6945 53.3081 79.7792 55.8312C76.864 58.3542 74.4928 61.4442 72.81 64.9129C71.1272 68.3817 70.1679 72.1567 69.9907 76.008C69.8136 79.8594 70.4221 83.7065 71.7793 87.3151C71.8264 87.4423 71.8446 87.5783 71.8327 87.7134C71.8207 87.8485 71.7788 87.9792 71.7101 88.0961C71.6414 88.213 71.5475 88.3131 71.4353 88.3892C71.323 88.4653 71.1953 88.5155 71.0613 88.5362C67.3454 89.094 63.9778 91.0359 61.6337 93.9726C59.2897 96.9093 58.1425 100.624 58.4222 104.371C58.7019 108.118 60.3879 111.621 63.142 114.177C65.8961 116.733 69.5148 118.153 73.2723 118.153V118.154Z" stroke="#0058CE" stroke-width="2.2"/>
<path d="M111.476 133.59H153.015C155.254 133.59 157.401 132.701 158.984 131.118C160.567 129.535 161.456 127.388 161.456 125.149C161.456 122.91 160.567 120.763 158.984 119.18C157.401 117.597 155.254 116.707 153.015 116.707H151.128C150.994 116.708 150.865 116.655 150.769 116.562C150.672 116.469 150.616 116.342 150.612 116.207C150.506 113.829 149.552 111.568 147.922 109.832C146.292 108.097 144.095 107.003 141.728 106.748C141.623 106.738 141.524 106.696 141.444 106.628C141.364 106.559 141.307 106.468 141.281 106.366C140.723 104.259 139.742 102.286 138.399 100.569C137.055 98.8514 135.377 97.4247 133.466 96.3753C131.555 95.326 129.45 94.6758 127.28 94.4642C125.11 94.2526 122.919 94.484 120.841 95.1444C118.763 95.8048 116.841 96.8804 115.191 98.306C113.541 99.7316 112.198 101.477 111.243 103.438C110.288 105.398 109.742 107.532 109.636 109.71C109.531 111.888 109.869 114.064 110.63 116.107C110.657 116.18 110.667 116.257 110.66 116.333C110.653 116.41 110.63 116.484 110.591 116.55C110.552 116.616 110.499 116.673 110.435 116.716C110.371 116.759 110.299 116.788 110.223 116.799C108.118 117.116 106.21 118.217 104.882 119.882C103.554 121.546 102.904 123.65 103.062 125.774C103.221 127.897 104.176 129.882 105.736 131.331C107.297 132.779 109.347 133.585 111.476 133.585V133.59Z" fill="#EAF3F9" stroke="#0058CE" stroke-width="2.2"/>
<path d="M163.285 132.082C163.246 132.081 163.207 132.069 163.175 132.046C163.143 132.023 163.118 131.992 163.103 131.955C163.089 131.918 163.086 131.878 163.095 131.839C163.103 131.801 163.123 131.766 163.151 131.738C165.352 129.705 168.129 128.402 171.1 128.01C171.149 128.01 171.195 128.028 171.232 128.06C171.268 128.092 171.292 128.136 171.298 128.184C171.304 128.232 171.293 128.281 171.266 128.321C171.239 128.361 171.199 128.391 171.152 128.403C168.262 128.785 165.56 130.052 163.419 132.03C163.382 132.064 163.335 132.082 163.285 132.082Z" fill="#0058CE"/>
<path d="M158.774 140.619H158.746C158.694 140.611 158.648 140.584 158.616 140.542C158.585 140.5 158.571 140.447 158.578 140.395C158.944 137.877 159.963 135.498 161.534 133.495C161.569 133.461 161.614 133.441 161.663 133.438C161.712 133.436 161.759 133.451 161.798 133.481C161.836 133.511 161.862 133.554 161.871 133.601C161.88 133.649 161.871 133.699 161.846 133.74C160.317 135.689 159.325 138.005 158.969 140.456C158.96 140.502 158.936 140.543 158.901 140.573C158.865 140.602 158.82 140.619 158.774 140.619Z" fill="#0058CE"/>
<path d="M161.492 151.326C161.462 151.326 161.431 151.319 161.404 151.306C161.376 151.292 161.352 151.272 161.333 151.247C159.868 149.289 158.919 146.993 158.572 144.571C158.564 144.544 158.562 144.515 158.567 144.487C158.571 144.458 158.581 144.431 158.596 144.407C158.612 144.383 158.632 144.363 158.656 144.347C158.681 144.332 158.708 144.321 158.736 144.317C158.765 144.313 158.793 144.315 158.821 144.324C158.848 144.332 158.874 144.346 158.895 144.364C158.917 144.383 158.934 144.406 158.946 144.432C158.958 144.458 158.964 144.487 158.964 144.515C159.301 146.871 160.225 149.104 161.65 151.009C161.672 151.039 161.685 151.074 161.688 151.11C161.691 151.147 161.684 151.183 161.667 151.216C161.651 151.248 161.626 151.276 161.595 151.295C161.564 151.315 161.529 151.326 161.492 151.326Z" fill="#0058CE"/>
<path d="M171.343 157.015H171.32C168.113 156.63 165.124 155.198 162.815 152.94C162.785 152.902 162.771 152.855 162.774 152.807C162.777 152.759 162.797 152.713 162.83 152.679C162.864 152.644 162.909 152.623 162.957 152.619C163.005 152.615 163.053 152.629 163.092 152.657C165.338 154.854 168.247 156.247 171.366 156.62C171.419 156.623 171.468 156.647 171.504 156.687C171.539 156.727 171.557 156.779 171.554 156.832C171.551 156.885 171.527 156.935 171.488 156.97C171.448 157.005 171.396 157.023 171.343 157.02V157.015Z" fill="#0058CE"/>
<path d="M173.097 133.395C170.115 133.401 167.203 132.489 164.757 130.783C164.731 130.77 164.709 130.752 164.691 130.73C164.673 130.707 164.66 130.682 164.653 130.654C164.646 130.626 164.645 130.597 164.65 130.569C164.655 130.54 164.666 130.514 164.682 130.49C164.699 130.467 164.72 130.447 164.745 130.432C164.769 130.418 164.797 130.408 164.825 130.405C164.854 130.402 164.883 130.406 164.91 130.415C164.937 130.424 164.962 130.439 164.983 130.458C167.363 132.118 170.196 133.005 173.097 132.999C173.15 132.999 173.201 133.02 173.238 133.058C173.276 133.095 173.297 133.146 173.297 133.199C173.297 133.252 173.276 133.303 173.238 133.341C173.201 133.378 173.15 133.399 173.097 133.399V133.395Z" fill="#0058CE"/>
<path d="M165.409 154.638C165.366 154.637 165.325 154.621 165.292 154.595C165.259 154.568 165.235 154.532 165.224 154.491C165.213 154.45 165.215 154.406 165.23 154.367C165.245 154.327 165.273 154.293 165.309 154.27C167.593 152.885 170.214 152.153 172.886 152.155C172.939 152.155 172.989 152.176 173.027 152.214C173.064 152.251 173.086 152.302 173.086 152.355C173.086 152.408 173.064 152.459 173.027 152.497C172.989 152.534 172.939 152.555 172.886 152.555C170.286 152.553 167.736 153.264 165.514 154.612C165.482 154.63 165.445 154.639 165.409 154.638Z" fill="#0058CE"/>
<path d="M165.817 141.499H165.808C165.756 141.496 165.707 141.472 165.671 141.434C165.636 141.395 165.617 141.344 165.619 141.292C165.889 135.105 168.142 129.937 171.225 128.429C171.249 128.413 171.276 128.402 171.304 128.397C171.332 128.393 171.361 128.394 171.389 128.401C171.416 128.409 171.442 128.422 171.464 128.44C171.486 128.458 171.504 128.481 171.517 128.507C171.529 128.532 171.536 128.56 171.537 128.589C171.538 128.618 171.532 128.646 171.521 128.672C171.51 128.699 171.493 128.722 171.472 128.742C171.451 128.761 171.426 128.776 171.399 128.785C168.443 130.231 166.279 135.263 166.015 141.309C166.013 141.359 165.991 141.408 165.954 141.443C165.917 141.478 165.868 141.498 165.817 141.499Z" fill="#0058CE"/>
<path d="M171.388 156.729C171.359 156.73 171.331 156.723 171.304 156.71C168.145 155.238 165.858 149.998 165.613 143.67C165.612 143.618 165.631 143.567 165.666 143.529C165.702 143.49 165.751 143.467 165.803 143.464C165.856 143.463 165.907 143.482 165.945 143.517C165.984 143.553 166.007 143.602 166.009 143.654C166.245 149.741 168.491 154.961 171.472 156.354C171.512 156.375 171.543 156.407 171.562 156.447C171.581 156.487 171.586 156.533 171.577 156.576C171.567 156.619 171.543 156.658 171.509 156.686C171.475 156.715 171.433 156.731 171.388 156.732V156.729Z" fill="#0058CE"/>
<path d="M171.979 138.268H171.973C167.197 138.129 162.902 137.05 160.485 135.382C160.46 135.369 160.437 135.351 160.419 135.329C160.401 135.307 160.388 135.281 160.381 135.253C160.374 135.225 160.373 135.196 160.378 135.168C160.383 135.14 160.394 135.113 160.41 135.09C160.427 135.066 160.448 135.046 160.472 135.032C160.497 135.017 160.524 135.008 160.553 135.005C160.581 135.001 160.61 135.004 160.637 135.013C160.664 135.022 160.689 135.037 160.71 135.056C163.067 136.682 167.282 137.734 171.985 137.871C172.038 137.872 172.089 137.894 172.126 137.932C172.163 137.97 172.183 138.021 172.182 138.074C172.182 138.127 172.16 138.178 172.122 138.215C172.084 138.252 172.032 138.272 171.979 138.271V138.268Z" fill="#0058CE"/>
<path d="M160.597 149.761C160.556 149.759 160.516 149.745 160.483 149.72C160.45 149.695 160.426 149.66 160.414 149.621C160.401 149.581 160.401 149.539 160.414 149.499C160.427 149.46 160.451 149.425 160.484 149.401C162.899 147.735 167.192 146.656 171.964 146.516C172.015 146.518 172.063 146.539 172.1 146.574C172.137 146.61 172.16 146.657 172.164 146.708C172.165 146.759 172.145 146.809 172.109 146.846C172.073 146.884 172.024 146.906 171.972 146.908C167.272 147.046 163.061 148.099 160.705 149.723C160.674 149.746 160.636 149.759 160.597 149.761Z" fill="#0058CE"/>
<path d="M173.038 155.146C172.985 155.146 172.934 155.125 172.896 155.088C172.859 155.05 172.838 155 172.838 154.946V147.786C172.838 147.733 172.859 147.683 172.896 147.645C172.934 147.608 172.985 147.586 173.038 147.586C173.091 147.586 173.142 147.608 173.179 147.645C173.217 147.683 173.238 147.733 173.238 147.786V154.946C173.238 155 173.217 155.05 173.179 155.088C173.142 155.125 173.091 155.146 173.038 155.146Z" fill="#0058CE"/>
<path d="M173.038 145.835C172.985 145.835 172.934 145.814 172.896 145.777C172.859 145.739 172.838 145.688 172.838 145.635V139.127C172.838 139.074 172.859 139.023 172.896 138.986C172.934 138.948 172.985 138.927 173.038 138.927C173.091 138.927 173.142 138.948 173.179 138.986C173.217 139.023 173.238 139.074 173.238 139.127V145.635C173.238 145.688 173.217 145.739 173.179 145.777C173.142 145.814 173.091 145.835 173.038 145.835Z" fill="#0058CE"/>
<path d="M173.038 137.198C172.985 137.198 172.934 137.177 172.896 137.14C172.859 137.102 172.838 137.051 172.838 136.998V130.046C172.838 129.993 172.859 129.942 172.896 129.905C172.934 129.867 172.985 129.846 173.038 129.846C173.091 129.846 173.142 129.867 173.179 129.905C173.217 129.942 173.238 129.993 173.238 130.046V136.998C173.238 137.051 173.217 137.102 173.179 137.14C173.142 137.177 173.091 137.198 173.038 137.198Z" fill="#0058CE"/>
<path d="M173.014 142.696H166.831C166.778 142.696 166.727 142.675 166.689 142.638C166.652 142.6 166.631 142.549 166.631 142.496C166.631 142.443 166.652 142.392 166.689 142.355C166.727 142.317 166.778 142.296 166.831 142.296H173.013C173.066 142.296 173.117 142.317 173.154 142.355C173.192 142.392 173.213 142.443 173.213 142.496C173.213 142.549 173.192 142.6 173.154 142.638C173.117 142.675 173.066 142.696 173.013 142.696H173.014Z" fill="#0058CE"/>
<path d="M164.795 142.696H160.741C160.688 142.696 160.637 142.675 160.6 142.638C160.562 142.6 160.541 142.549 160.541 142.496C160.541 142.443 160.562 142.392 160.6 142.355C160.637 142.317 160.688 142.296 160.741 142.296H164.798C164.851 142.296 164.902 142.317 164.939 142.355C164.977 142.392 164.998 142.443 164.998 142.496C164.998 142.549 164.977 142.6 164.939 142.638C164.902 142.675 164.851 142.696 164.798 142.696H164.795Z" fill="#0058CE"/>
<path d="M158.625 144.508C158.228 144.508 157.839 144.39 157.509 144.17C157.178 143.949 156.92 143.635 156.768 143.268C156.616 142.9 156.576 142.496 156.654 142.106C156.731 141.716 156.923 141.358 157.204 141.077C157.485 140.796 157.843 140.604 158.233 140.527C158.623 140.449 159.027 140.489 159.394 140.641C159.762 140.793 160.076 141.051 160.296 141.382C160.517 141.712 160.635 142.101 160.635 142.498C160.635 143.031 160.423 143.542 160.046 143.919C159.669 144.296 159.158 144.508 158.625 144.508ZM158.625 140.884C158.306 140.884 157.994 140.979 157.728 141.156C157.463 141.333 157.256 141.585 157.133 141.88C157.011 142.175 156.979 142.499 157.041 142.813C157.103 143.126 157.257 143.413 157.483 143.639C157.708 143.865 157.996 144.019 158.309 144.081C158.622 144.144 158.947 144.112 159.242 143.99C159.537 143.867 159.789 143.661 159.966 143.395C160.144 143.13 160.238 142.818 160.238 142.498C160.238 142.071 160.068 141.66 159.765 141.358C159.463 141.055 159.053 140.885 158.625 140.884Z" fill="#0058CE"/>
<path d="M172.939 129.945C172.557 129.945 172.184 129.832 171.867 129.62C171.55 129.408 171.303 129.107 171.157 128.755C171.011 128.402 170.972 128.014 171.047 127.64C171.121 127.266 171.305 126.922 171.575 126.652C171.845 126.383 172.188 126.199 172.562 126.124C172.937 126.05 173.324 126.088 173.677 126.234C174.029 126.38 174.331 126.627 174.543 126.945C174.755 127.262 174.868 127.635 174.868 128.016C174.867 128.528 174.664 129.018 174.302 129.38C173.941 129.741 173.45 129.945 172.939 129.945ZM172.939 126.482C172.636 126.482 172.339 126.572 172.087 126.741C171.835 126.909 171.638 127.149 171.522 127.429C171.406 127.709 171.376 128.017 171.435 128.314C171.494 128.612 171.64 128.885 171.855 129.099C172.069 129.314 172.342 129.46 172.64 129.519C172.937 129.578 173.245 129.548 173.525 129.432C173.806 129.316 174.045 129.119 174.213 128.867C174.382 128.615 174.472 128.319 174.472 128.015C174.471 127.609 174.31 127.219 174.022 126.932C173.735 126.645 173.345 126.483 172.939 126.482Z" fill="#0058CE"/>
<path d="M173.122 158.868C172.741 158.868 172.368 158.755 172.051 158.543C171.733 158.331 171.486 158.03 171.34 157.677C171.194 157.325 171.156 156.937 171.23 156.563C171.305 156.189 171.489 155.845 171.758 155.575C172.028 155.305 172.372 155.122 172.746 155.047C173.12 154.973 173.508 155.011 173.861 155.157C174.213 155.303 174.514 155.55 174.726 155.868C174.938 156.185 175.051 156.558 175.051 156.939C175.051 157.451 174.847 157.941 174.485 158.302C174.124 158.664 173.634 158.868 173.122 158.868ZM173.122 155.405C172.819 155.405 172.523 155.495 172.271 155.664C172.019 155.832 171.822 156.072 171.706 156.352C171.59 156.632 171.56 156.94 171.619 157.237C171.678 157.535 171.824 157.808 172.038 158.022C172.253 158.237 172.526 158.383 172.823 158.442C173.121 158.501 173.429 158.471 173.709 158.355C173.989 158.239 174.229 158.042 174.397 157.79C174.565 157.538 174.655 157.241 174.655 156.938C174.655 156.532 174.493 156.142 174.206 155.855C173.918 155.567 173.529 155.406 173.122 155.405Z" fill="#0058CE"/>
<path d="M165.791 143.693C165.554 143.693 165.323 143.623 165.127 143.492C164.93 143.361 164.777 143.174 164.687 142.956C164.596 142.737 164.573 142.497 164.619 142.265C164.665 142.033 164.779 141.82 164.946 141.653C165.113 141.486 165.326 141.372 165.558 141.326C165.789 141.28 166.03 141.304 166.248 141.394C166.466 141.485 166.653 141.638 166.784 141.834C166.916 142.031 166.986 142.262 166.986 142.498C166.984 142.815 166.858 143.118 166.634 143.342C166.41 143.566 166.107 143.692 165.791 143.693ZM165.791 141.699C165.633 141.699 165.478 141.746 165.346 141.834C165.215 141.922 165.112 142.047 165.052 142.193C164.991 142.339 164.975 142.5 165.006 142.655C165.037 142.81 165.113 142.953 165.225 143.065C165.337 143.177 165.479 143.253 165.635 143.284C165.79 143.315 165.951 143.299 166.097 143.238C166.243 143.178 166.368 143.075 166.456 142.944C166.544 142.812 166.591 142.657 166.591 142.499C166.591 142.287 166.506 142.084 166.356 141.934C166.206 141.784 166.003 141.699 165.791 141.699Z" fill="#0058CE"/>
<path d="M173.078 147.889C172.84 147.89 172.608 147.821 172.41 147.689C172.212 147.558 172.057 147.371 171.966 147.152C171.874 146.933 171.85 146.691 171.896 146.458C171.941 146.225 172.055 146.011 172.223 145.843C172.39 145.674 172.604 145.559 172.837 145.513C173.07 145.466 173.312 145.489 173.531 145.58C173.751 145.671 173.938 145.825 174.07 146.022C174.203 146.219 174.273 146.452 174.273 146.689C174.273 147.007 174.147 147.311 173.923 147.536C173.699 147.761 173.395 147.888 173.078 147.889ZM173.078 145.895C172.92 145.895 172.765 145.942 172.634 146.03C172.502 146.118 172.399 146.243 172.339 146.389C172.278 146.535 172.263 146.696 172.293 146.851C172.324 147.006 172.4 147.149 172.512 147.261C172.624 147.373 172.767 147.449 172.922 147.48C173.077 147.511 173.238 147.495 173.384 147.434C173.53 147.374 173.655 147.271 173.743 147.14C173.831 147.008 173.878 146.853 173.878 146.695C173.879 146.59 173.859 146.485 173.819 146.387C173.779 146.29 173.72 146.201 173.646 146.126C173.572 146.051 173.483 145.991 173.386 145.951C173.288 145.91 173.184 145.889 173.078 145.889V145.895Z" fill="#0058CE"/>
<path d="M173.043 139.281C172.806 139.281 172.575 139.211 172.379 139.079C172.182 138.948 172.029 138.761 171.939 138.543C171.848 138.325 171.825 138.084 171.871 137.852C171.917 137.621 172.031 137.408 172.198 137.241C172.365 137.073 172.578 136.96 172.81 136.914C173.041 136.867 173.282 136.891 173.5 136.982C173.718 137.072 173.905 137.225 174.036 137.422C174.168 137.618 174.238 137.849 174.238 138.086C174.236 138.402 174.11 138.705 173.886 138.929C173.662 139.153 173.359 139.279 173.043 139.281ZM173.043 137.287C172.884 137.287 172.73 137.333 172.598 137.421C172.467 137.509 172.364 137.634 172.304 137.78C172.243 137.927 172.227 138.088 172.258 138.243C172.289 138.398 172.365 138.54 172.477 138.652C172.589 138.764 172.731 138.84 172.887 138.871C173.042 138.902 173.203 138.886 173.349 138.826C173.495 138.765 173.62 138.663 173.708 138.531C173.796 138.4 173.843 138.245 173.843 138.087C173.843 137.874 173.758 137.671 173.608 137.521C173.458 137.371 173.255 137.287 173.043 137.287Z" fill="#0058CE"/>
<path d="M162.493 133.96C162.256 133.96 162.024 133.889 161.826 133.757C161.629 133.625 161.475 133.438 161.384 133.219C161.293 133 161.27 132.758 161.316 132.525C161.362 132.293 161.477 132.079 161.644 131.911C161.812 131.743 162.026 131.629 162.259 131.583C162.492 131.536 162.733 131.56 162.952 131.651C163.171 131.742 163.359 131.896 163.491 132.093C163.623 132.29 163.693 132.522 163.693 132.76C163.693 133.078 163.567 133.383 163.341 133.608C163.116 133.833 162.811 133.96 162.493 133.96ZM162.493 131.966C162.335 131.966 162.18 132.012 162.049 132.1C161.917 132.188 161.814 132.313 161.754 132.459C161.693 132.606 161.677 132.766 161.708 132.922C161.739 133.077 161.815 133.219 161.927 133.331C162.039 133.443 162.182 133.519 162.337 133.55C162.492 133.581 162.653 133.565 162.799 133.505C162.945 133.444 163.07 133.342 163.158 133.21C163.246 133.078 163.293 132.924 163.293 132.766C163.293 132.553 163.209 132.35 163.059 132.2C162.909 132.05 162.705 131.966 162.493 131.966Z" fill="#0058CE"/>
<path d="M162.252 153.244C162.014 153.245 161.782 153.176 161.584 153.044C161.386 152.913 161.231 152.726 161.14 152.507C161.048 152.288 161.024 152.046 161.069 151.813C161.115 151.58 161.229 151.366 161.397 151.197C161.564 151.029 161.778 150.914 162.011 150.868C162.244 150.821 162.485 150.844 162.705 150.935C162.924 151.026 163.112 151.18 163.244 151.377C163.376 151.575 163.447 151.807 163.447 152.044C163.447 152.362 163.321 152.666 163.097 152.891C162.873 153.116 162.569 153.243 162.252 153.244ZM162.252 151.25C162.094 151.25 161.939 151.297 161.807 151.385C161.676 151.473 161.573 151.598 161.513 151.744C161.452 151.89 161.436 152.051 161.467 152.206C161.498 152.362 161.574 152.504 161.686 152.616C161.798 152.728 161.941 152.804 162.096 152.835C162.251 152.866 162.412 152.85 162.558 152.789C162.704 152.729 162.829 152.626 162.917 152.495C163.005 152.363 163.052 152.208 163.052 152.05C163.052 151.838 162.968 151.635 162.818 151.485C162.668 151.335 162.464 151.25 162.252 151.25Z" fill="#0058CE"/>
<path d="M182.936 132.082C182.887 132.082 182.839 132.064 182.802 132.03C180.661 130.052 177.96 128.785 175.069 128.403C175.023 128.391 174.982 128.361 174.955 128.321C174.929 128.281 174.917 128.232 174.924 128.184C174.93 128.136 174.954 128.092 174.99 128.06C175.026 128.028 175.073 128.01 175.121 128.01C178.093 128.402 180.869 129.705 183.07 131.738C183.099 131.766 183.119 131.801 183.127 131.839C183.136 131.878 183.132 131.918 183.118 131.955C183.104 131.992 183.079 132.023 183.047 132.046C183.014 132.069 182.976 132.081 182.936 132.082Z" fill="#0058CE"/>
<path d="M187.444 140.619C187.396 140.62 187.349 140.603 187.313 140.572C187.276 140.54 187.252 140.497 187.244 140.449C186.889 138 185.899 135.686 184.372 133.737C184.352 133.717 184.336 133.693 184.326 133.667C184.316 133.64 184.311 133.612 184.313 133.583C184.314 133.555 184.322 133.527 184.335 133.502C184.348 133.477 184.367 133.455 184.389 133.437C184.411 133.42 184.437 133.407 184.465 133.4C184.492 133.394 184.521 133.393 184.549 133.398C184.577 133.403 184.604 133.414 184.627 133.431C184.65 133.447 184.67 133.468 184.684 133.492C186.255 135.495 187.274 137.874 187.64 140.392C187.647 140.444 187.634 140.497 187.602 140.539C187.571 140.58 187.524 140.608 187.472 140.616L187.444 140.619Z" fill="#0058CE"/>
<path d="M184.725 151.327C184.689 151.327 184.653 151.316 184.622 151.296C184.591 151.277 184.567 151.249 184.55 151.217C184.534 151.184 184.527 151.148 184.53 151.111C184.533 151.075 184.546 151.04 184.567 151.01C185.993 149.105 186.916 146.872 187.253 144.516C187.261 144.465 187.289 144.418 187.331 144.387C187.373 144.355 187.425 144.342 187.477 144.348C187.529 144.356 187.575 144.384 187.607 144.426C187.638 144.468 187.652 144.521 187.645 144.572C187.299 146.994 186.349 149.29 184.884 151.248C184.865 151.273 184.841 151.293 184.814 151.307C184.786 151.32 184.756 151.327 184.725 151.327Z" fill="#0058CE"/>
<path d="M174.876 157.013C174.823 157.016 174.771 156.998 174.731 156.963C174.691 156.927 174.667 156.878 174.664 156.825C174.661 156.772 174.679 156.719 174.715 156.68C174.75 156.64 174.8 156.616 174.853 156.613C177.972 156.24 180.881 154.847 183.127 152.65C183.166 152.622 183.214 152.608 183.262 152.612C183.309 152.616 183.354 152.637 183.388 152.671C183.422 152.706 183.442 152.751 183.445 152.799C183.448 152.847 183.433 152.895 183.404 152.933C181.095 155.191 178.105 156.623 174.899 157.008L174.876 157.013Z" fill="#0058CE"/>
<path d="M173.122 133.394C173.069 133.394 173.018 133.373 172.98 133.336C172.943 133.298 172.922 133.247 172.922 133.194C172.922 133.141 172.943 133.09 172.98 133.053C173.018 133.015 173.069 132.994 173.122 132.994C176.023 133 178.856 132.113 181.236 130.453C181.257 130.434 181.282 130.419 181.309 130.41C181.336 130.401 181.365 130.397 181.394 130.401C181.422 130.404 181.45 130.413 181.474 130.427C181.499 130.442 181.52 130.462 181.537 130.485C181.553 130.509 181.564 130.536 181.569 130.564C181.574 130.592 181.573 130.621 181.566 130.649C181.559 130.677 181.546 130.703 181.528 130.725C181.51 130.747 181.488 130.766 181.462 130.778C179.016 132.486 176.105 133.399 173.122 133.394Z" fill="#0058CE"/>
<path d="M180.81 154.638C180.774 154.638 180.74 154.628 180.71 154.609C178.487 153.262 175.938 152.55 173.339 152.552C173.286 152.552 173.235 152.531 173.197 152.494C173.16 152.456 173.139 152.405 173.139 152.352C173.139 152.299 173.16 152.248 173.197 152.211C173.235 152.173 173.286 152.152 173.339 152.152C176.01 152.15 178.631 152.882 180.916 154.267C180.951 154.29 180.979 154.324 180.994 154.364C181.009 154.404 181.012 154.447 181 154.488C180.989 154.529 180.965 154.565 180.932 154.592C180.899 154.618 180.858 154.634 180.816 154.635L180.81 154.638Z" fill="#0058CE"/>
<path d="M180.399 141.498C180.348 141.498 180.299 141.479 180.262 141.443C180.224 141.408 180.202 141.36 180.199 141.309C179.935 135.263 177.771 130.23 174.815 128.785C174.788 128.776 174.763 128.761 174.742 128.742C174.721 128.723 174.705 128.699 174.693 128.673C174.682 128.646 174.677 128.618 174.678 128.59C174.679 128.561 174.686 128.533 174.698 128.507C174.711 128.482 174.729 128.459 174.751 128.441C174.773 128.422 174.798 128.409 174.826 128.402C174.853 128.394 174.882 128.393 174.911 128.398C174.939 128.402 174.966 128.413 174.989 128.429C178.072 129.936 180.324 135.105 180.595 141.292C180.597 141.344 180.579 141.395 180.543 141.434C180.508 141.473 180.459 141.496 180.406 141.499L180.399 141.498Z" fill="#0058CE"/>
<path d="M174.83 156.728C174.785 156.727 174.743 156.71 174.709 156.682C174.675 156.654 174.651 156.615 174.641 156.572C174.632 156.528 174.637 156.483 174.656 156.443C174.675 156.403 174.706 156.37 174.746 156.35C177.726 154.961 179.973 149.74 180.209 143.65C180.211 143.598 180.234 143.548 180.273 143.513C180.311 143.477 180.362 143.458 180.415 143.46C180.467 143.463 180.516 143.486 180.552 143.524C180.587 143.563 180.606 143.614 180.605 143.666C180.36 149.993 178.072 155.234 174.914 156.706C174.888 156.72 174.859 156.727 174.83 156.728Z" fill="#0058CE"/>
<path d="M174.238 138.268C174.185 138.269 174.134 138.249 174.096 138.212C174.058 138.175 174.036 138.124 174.035 138.071C174.034 138.018 174.055 137.967 174.092 137.929C174.129 137.891 174.179 137.869 174.232 137.868C178.932 137.731 183.15 136.678 185.507 135.053C185.528 135.034 185.553 135.019 185.58 135.01C185.608 135.002 185.636 134.999 185.665 135.002C185.693 135.005 185.721 135.014 185.745 135.029C185.77 135.044 185.791 135.063 185.807 135.087C185.823 135.11 185.834 135.137 185.84 135.165C185.845 135.194 185.843 135.222 185.836 135.25C185.829 135.278 185.816 135.304 185.798 135.326C185.78 135.348 185.758 135.366 185.732 135.379C183.315 137.047 179.02 138.126 174.244 138.265L174.238 138.268Z" fill="#0058CE"/>
<path d="M185.62 149.759C185.58 149.759 185.541 149.747 185.508 149.724C183.153 148.1 178.941 147.047 174.241 146.909C174.189 146.907 174.14 146.885 174.105 146.848C174.069 146.81 174.049 146.761 174.049 146.709C174.055 146.659 174.078 146.612 174.115 146.577C174.151 146.542 174.198 146.521 174.249 146.517C179.022 146.657 183.314 147.736 185.729 149.402C185.762 149.427 185.787 149.461 185.799 149.501C185.812 149.54 185.812 149.583 185.8 149.622C185.787 149.662 185.763 149.696 185.73 149.721C185.697 149.746 185.657 149.761 185.616 149.762L185.62 149.759Z" fill="#0058CE"/>
<path d="M179.386 142.695H173.204C173.151 142.695 173.1 142.674 173.062 142.637C173.025 142.599 173.004 142.548 173.004 142.495C173.004 142.442 173.025 142.392 173.062 142.354C173.1 142.316 173.151 142.295 173.204 142.295H179.386C179.439 142.295 179.49 142.316 179.527 142.354C179.565 142.392 179.586 142.442 179.586 142.495C179.586 142.548 179.565 142.599 179.527 142.637C179.49 142.674 179.439 142.695 179.386 142.695Z" fill="#0058CE"/>
<path d="M185.482 142.695H181.425C181.372 142.695 181.321 142.674 181.283 142.637C181.246 142.599 181.225 142.548 181.225 142.495C181.225 142.442 181.246 142.392 181.283 142.354C181.321 142.316 181.372 142.295 181.425 142.295H185.482C185.535 142.295 185.586 142.316 185.623 142.354C185.661 142.392 185.682 142.442 185.682 142.495C185.682 142.548 185.661 142.599 185.623 142.637C185.586 142.674 185.535 142.695 185.482 142.695Z" fill="#0058CE"/>
<path d="M187.594 144.508C187.196 144.508 186.808 144.39 186.477 144.17C186.147 143.949 185.889 143.635 185.737 143.268C185.585 142.9 185.545 142.496 185.623 142.106C185.7 141.716 185.892 141.358 186.173 141.077C186.454 140.796 186.812 140.604 187.202 140.527C187.592 140.449 187.996 140.489 188.363 140.641C188.73 140.793 189.044 141.051 189.265 141.382C189.486 141.712 189.604 142.101 189.604 142.498C189.603 143.031 189.392 143.542 189.015 143.919C188.638 144.296 188.127 144.508 187.594 144.508ZM187.594 140.884C187.275 140.884 186.963 140.979 186.697 141.156C186.432 141.334 186.225 141.586 186.103 141.881C185.981 142.176 185.949 142.5 186.011 142.813C186.073 143.126 186.227 143.414 186.453 143.64C186.678 143.865 186.966 144.019 187.279 144.081C187.592 144.144 187.917 144.112 188.212 143.989C188.507 143.867 188.759 143.66 188.936 143.395C189.113 143.13 189.208 142.817 189.208 142.498C189.207 142.07 189.037 141.66 188.735 141.358C188.432 141.055 188.022 140.885 187.594 140.884Z" fill="#0058CE"/>
<path d="M180.427 143.693C180.191 143.693 179.96 143.623 179.764 143.492C179.567 143.361 179.414 143.174 179.323 142.956C179.233 142.737 179.209 142.497 179.255 142.265C179.301 142.033 179.415 141.82 179.582 141.653C179.75 141.486 179.962 141.372 180.194 141.326C180.426 141.28 180.666 141.304 180.885 141.394C181.103 141.485 181.29 141.638 181.421 141.834C181.552 142.031 181.622 142.262 181.622 142.498C181.621 142.815 181.495 143.118 181.271 143.342C181.047 143.566 180.744 143.692 180.427 143.693ZM180.427 141.699C180.269 141.699 180.115 141.746 179.983 141.834C179.851 141.922 179.749 142.047 179.688 142.193C179.628 142.339 179.612 142.5 179.643 142.655C179.674 142.81 179.75 142.953 179.862 143.065C179.974 143.177 180.116 143.253 180.271 143.284C180.427 143.315 180.587 143.299 180.734 143.238C180.88 143.178 181.005 143.075 181.093 142.944C181.18 142.812 181.227 142.657 181.227 142.499C181.227 142.287 181.143 142.084 180.993 141.934C180.843 141.784 180.64 141.699 180.427 141.699Z" fill="#0058CE"/>
<path d="M183.726 133.958C183.489 133.959 183.256 133.89 183.058 133.758C182.86 133.627 182.706 133.44 182.614 133.221C182.523 133.002 182.498 132.76 182.544 132.527C182.59 132.294 182.704 132.08 182.871 131.911C183.039 131.743 183.253 131.628 183.486 131.582C183.718 131.535 183.96 131.558 184.18 131.649C184.399 131.74 184.587 131.893 184.719 132.091C184.851 132.288 184.922 132.521 184.922 132.758C184.922 133.076 184.796 133.38 184.572 133.605C184.348 133.83 184.044 133.957 183.726 133.958ZM183.726 131.964C183.568 131.964 183.414 132.011 183.282 132.099C183.15 132.187 183.048 132.312 182.987 132.458C182.927 132.604 182.911 132.765 182.942 132.92C182.973 133.075 183.049 133.218 183.161 133.33C183.273 133.442 183.415 133.518 183.57 133.549C183.726 133.58 183.886 133.564 184.033 133.503C184.179 133.443 184.304 133.34 184.392 133.209C184.48 133.077 184.526 132.922 184.526 132.764C184.526 132.552 184.442 132.348 184.292 132.198C184.142 132.048 183.939 131.964 183.726 131.964Z" fill="#0058CE"/>
<path d="M183.968 153.244C183.73 153.244 183.498 153.174 183.301 153.042C183.104 152.91 182.95 152.723 182.859 152.503C182.768 152.284 182.744 152.043 182.791 151.81C182.837 151.577 182.951 151.364 183.119 151.196C183.287 151.028 183.501 150.914 183.734 150.867C183.966 150.821 184.208 150.845 184.427 150.936C184.646 151.026 184.834 151.18 184.965 151.378C185.097 151.575 185.168 151.807 185.168 152.044C185.168 152.202 185.137 152.358 185.076 152.503C185.016 152.649 184.928 152.781 184.816 152.893C184.705 153.004 184.572 153.093 184.427 153.153C184.281 153.213 184.125 153.244 183.968 153.244ZM183.968 151.25C183.809 151.25 183.655 151.297 183.523 151.385C183.392 151.473 183.289 151.598 183.228 151.744C183.168 151.89 183.152 152.051 183.183 152.206C183.214 152.362 183.29 152.504 183.402 152.616C183.514 152.728 183.656 152.804 183.812 152.835C183.967 152.866 184.128 152.85 184.274 152.789C184.42 152.729 184.545 152.626 184.633 152.495C184.721 152.363 184.768 152.208 184.768 152.05C184.768 151.838 184.683 151.635 184.533 151.485C184.383 151.335 184.18 151.25 183.968 151.25Z" fill="#0058CE"/>
<path d="M85.3354 21.1453C85.2896 21.1453 85.2442 21.1363 85.2018 21.1187C85.1595 21.1012 85.121 21.0755 85.0886 21.0431C85.0562 21.0107 85.0305 20.9722 85.013 20.9299C84.9955 20.8875 84.9865 20.8421 84.9865 20.7963V16.6493C84.9865 15.0122 84.3361 13.4422 83.1785 12.2847C82.021 11.1271 80.451 10.4768 78.8139 10.4768C77.1769 10.4768 75.6068 11.1271 74.4493 12.2847C73.2917 13.4422 72.6414 15.0122 72.6414 16.6493V20.7963C72.6414 20.8891 72.6046 20.9781 72.5389 21.0438C72.4733 21.1094 72.3843 21.1463 72.2914 21.1463C72.1986 21.1463 72.1096 21.1094 72.0439 21.0438C71.9783 20.9781 71.9414 20.8891 71.9414 20.7963V16.6493C71.9414 14.8271 72.6653 13.0796 73.9537 11.7911C75.2422 10.5027 76.9898 9.77881 78.812 9.77881C80.6341 9.77881 82.3816 10.5027 83.6701 11.7911C84.9586 13.0796 85.6824 14.8271 85.6824 16.6493V20.7963C85.6824 20.8885 85.646 20.977 85.5809 21.0424C85.5159 21.1078 85.4277 21.1447 85.3354 21.1453Z" fill="#0058CE"/>
<path d="M86.1793 37.5883H71.7422C71.1559 37.5875 70.5939 37.3541 70.1794 36.9395C69.7649 36.5248 69.5318 35.9626 69.5312 35.3763V22.9713C69.5318 22.3849 69.7649 21.8228 70.1794 21.4081C70.5939 20.9934 71.1559 20.7601 71.7422 20.7593H86.1793C86.7656 20.7601 87.3276 20.9934 87.7421 21.4081C88.1566 21.8228 88.3897 22.3849 88.3903 22.9713V35.3763C88.3897 35.9626 88.1566 36.5248 87.7421 36.9395C87.3276 37.3541 86.7656 37.5875 86.1793 37.5883ZM71.7422 21.4573C71.3411 21.4578 70.9566 21.6174 70.673 21.901C70.3893 22.1846 70.2298 22.5692 70.2292 22.9703V35.3752C70.2298 35.7764 70.3893 36.1609 70.673 36.4445C70.9566 36.7281 71.3411 36.8877 71.7422 36.8882H86.1793C86.5804 36.8877 86.9649 36.7281 87.2485 36.4445C87.5322 36.1609 87.6917 35.7764 87.6923 35.3752V22.9713C87.6917 22.5701 87.5322 22.1856 87.2485 21.902C86.9649 21.6183 86.5804 21.4588 86.1793 21.4583L71.7422 21.4573Z" fill="#0058CE"/>
<path d="M78.9613 31.1482C78.5709 31.148 78.1894 31.0321 77.8649 30.8151C77.5404 30.598 77.2875 30.2897 77.1383 29.929C76.989 29.5682 76.95 29.1714 77.0263 28.7885C77.1026 28.4057 77.2907 28.054 77.5668 27.778C77.8429 27.502 78.1946 27.3141 78.5775 27.238C78.9604 27.162 79.3573 27.2012 79.7179 27.3506C80.0786 27.5 80.3868 27.753 80.6037 28.0776C80.8205 28.4022 80.9363 28.7838 80.9363 29.1742C80.9355 29.6977 80.7271 30.1995 80.3569 30.5695C79.9867 30.9396 79.4847 31.1477 78.9613 31.1482ZM78.9613 27.8982C78.7089 27.8982 78.4621 27.9731 78.2523 28.1133C78.0424 28.2536 77.8789 28.4529 77.7823 28.6862C77.6858 28.9194 77.6605 29.176 77.7099 29.4235C77.7592 29.6711 77.8808 29.8984 78.0594 30.0768C78.2379 30.2553 78.4654 30.3767 78.713 30.4258C78.9606 30.4749 79.2171 30.4495 79.4503 30.3528C79.6834 30.2561 79.8826 30.0924 80.0227 29.8824C80.1628 29.6724 80.2375 29.4256 80.2373 29.1732C80.2365 28.8352 80.1018 28.5113 79.8626 28.2725C79.6234 28.0337 79.2993 27.8995 78.9613 27.8992V27.8982Z" fill="#0058CE"/>
<path d="M159.518 46.9706C158.399 46.9721 157.301 46.6665 156.343 46.0871C155.386 45.5077 154.606 44.6767 154.089 43.6846C154.07 43.6529 154.058 43.6177 154.053 43.5812C154.048 43.5447 154.051 43.5076 154.061 43.4722C154.071 43.4367 154.089 43.4038 154.112 43.3752C154.135 43.3467 154.164 43.3232 154.197 43.3062C154.229 43.2892 154.265 43.279 154.302 43.2763C154.338 43.2736 154.375 43.2784 154.41 43.2904C154.445 43.3024 154.477 43.3214 154.504 43.3462C154.531 43.371 154.553 43.401 154.569 43.4346C155.148 44.5415 156.082 45.4223 157.221 45.936C158.36 46.4497 159.638 46.5668 160.851 46.2685C162.064 45.9703 163.143 45.2738 163.914 44.2906C164.684 43.3073 165.103 42.094 165.104 40.8446C165.101 40.8077 165.107 40.7707 165.119 40.7359C165.132 40.7012 165.151 40.6693 165.177 40.6424C165.202 40.6155 165.233 40.594 165.267 40.5794C165.301 40.5647 165.337 40.5571 165.374 40.5571C165.411 40.5571 165.448 40.5647 165.482 40.5794C165.516 40.594 165.546 40.6155 165.571 40.6424C165.597 40.6693 165.616 40.7012 165.629 40.7359C165.641 40.7707 165.647 40.8077 165.645 40.8446C165.642 42.4688 164.996 44.0259 163.848 45.1743C162.699 46.3227 161.142 46.9687 159.518 46.9706Z" fill="#0058CE"/>
<path d="M163.464 43.0204C163.41 43.0208 163.357 43.0052 163.312 42.9756C163.268 42.946 163.233 42.9036 163.212 42.854C163.191 42.8044 163.186 42.7498 163.197 42.6971C163.207 42.6445 163.233 42.5962 163.272 42.5584L165.178 40.6514C165.229 40.6028 165.298 40.5757 165.369 40.5757C165.44 40.5757 165.509 40.6028 165.561 40.6514L167.467 42.5584C167.512 42.61 167.537 42.6771 167.534 42.7461C167.532 42.815 167.504 42.8805 167.455 42.9293C167.407 42.9781 167.341 43.0065 167.272 43.0088C167.204 43.011 167.136 42.9869 167.085 42.9414L165.37 41.2254L163.655 42.9414C163.604 42.9917 163.535 43.02 163.464 43.0204Z" fill="#0058CE"/>
<path d="M153.66 41.1157C153.588 41.1157 153.519 41.0871 153.468 41.0363C153.417 40.9855 153.389 40.9166 153.389 40.8447C153.389 39.4741 153.848 38.1431 154.694 37.0645C155.54 35.9859 156.722 35.2219 158.053 34.8948C159.384 34.5677 160.787 34.6963 162.036 35.2601C163.285 35.8239 164.309 36.7902 164.945 38.0047C164.978 38.0682 164.985 38.1424 164.963 38.2108C164.942 38.2793 164.894 38.3364 164.831 38.3697C164.799 38.3862 164.765 38.3963 164.729 38.3995C164.694 38.4027 164.658 38.3989 164.625 38.3883C164.556 38.3669 164.499 38.3192 164.466 38.2557C163.887 37.1483 162.953 36.2671 161.814 35.7529C160.675 35.2388 159.396 35.1215 158.183 35.4197C156.969 35.7179 155.891 36.4144 155.12 37.3979C154.349 38.3814 153.93 39.595 153.93 40.8447C153.93 40.9164 153.901 40.9852 153.851 41.036C153.8 41.0868 153.731 41.1154 153.66 41.1157Z" fill="#0058CE"/>
<path d="M153.659 41.1147C153.623 41.1149 153.588 41.108 153.555 41.0944C153.523 41.0809 153.493 41.0609 153.468 41.0357L151.561 39.1317C151.533 39.1073 151.51 39.0774 151.495 39.0439C151.479 39.0104 151.47 38.9741 151.469 38.9371C151.468 38.9001 151.474 38.8632 151.488 38.8288C151.501 38.7943 151.522 38.7631 151.548 38.7368C151.574 38.7106 151.605 38.6901 151.64 38.6764C151.674 38.6627 151.711 38.6562 151.748 38.6573C151.785 38.6585 151.821 38.6671 151.855 38.6828C151.888 38.6986 151.918 38.721 151.943 38.7487L153.658 40.4637L155.374 38.7487C155.426 38.7032 155.493 38.6791 155.562 38.6813C155.63 38.6836 155.696 38.712 155.745 38.7608C155.793 38.8096 155.822 38.8751 155.824 38.9441C155.826 39.013 155.801 39.0801 155.756 39.1317L153.85 41.0317C153.825 41.0576 153.795 41.0783 153.763 41.0926C153.73 41.1068 153.695 41.1144 153.659 41.1147Z" fill="#0058CE"/>
<path d="M143.783 37.5354H132.921C132.165 37.535 131.432 37.2775 130.842 36.8053C130.252 36.3331 129.84 35.6743 129.673 34.937C129.507 34.1997 129.597 33.4278 129.927 32.748C130.258 32.0683 130.809 31.5211 131.492 31.1965C131.47 30.9735 131.46 30.7505 131.46 30.5325C131.459 29.0352 131.938 27.5771 132.827 26.3722C133.715 25.1672 134.967 24.279 136.398 23.8379C137.829 23.3969 139.363 23.4263 140.776 23.9217C142.189 24.4171 143.406 25.3524 144.248 26.5904C145.446 26.4169 146.668 26.6624 147.706 27.2853C148.745 27.9082 149.537 28.8704 149.948 30.0094C150.649 29.7993 151.396 29.7894 152.102 29.9808C152.809 30.1721 153.448 30.5571 153.948 31.0924C153.984 31.1289 154.012 31.1722 154.03 31.2197C154.049 31.2672 154.058 31.318 154.056 31.3691C154.055 31.4201 154.043 31.4703 154.022 31.5167C154.001 31.5631 153.97 31.6047 153.933 31.6391C153.895 31.6735 153.851 31.7 153.803 31.717C153.754 31.7339 153.703 31.741 153.652 31.7377C153.601 31.7345 153.552 31.721 153.506 31.6981C153.46 31.6752 153.42 31.6434 153.387 31.6045C152.946 31.1338 152.371 30.8095 151.741 30.6753C151.11 30.541 150.453 30.6032 149.859 30.8534L149.452 31.0365L149.336 30.6065C149.036 29.512 148.333 28.5713 147.369 27.9729C146.405 27.3745 145.25 27.1625 144.136 27.3794L143.881 27.4305L143.741 27.2095C143.02 26.0633 141.946 25.1826 140.681 24.7002C139.416 24.2177 138.029 24.1596 136.728 24.5347C135.427 24.9098 134.283 25.6976 133.469 26.7795C132.655 27.8613 132.215 29.1785 132.215 30.5325C132.215 30.8171 132.235 31.1015 132.274 31.3835L132.316 31.6835L132.029 31.7884C131.463 31.9978 130.989 32.3992 130.69 32.9226C130.39 33.4459 130.284 34.0579 130.39 34.6516C130.495 35.2453 130.807 35.783 131.269 36.1706C131.73 36.5583 132.314 36.7713 132.917 36.7724H143.778C143.879 36.7724 143.975 36.8125 144.047 36.8838C144.118 36.955 144.158 37.0517 144.158 37.1524C144.158 37.2532 144.118 37.3499 144.047 37.4212C143.975 37.4924 143.879 37.5325 143.778 37.5325L143.783 37.5354Z" fill="#0058CE"/>
<path d="M156.657 56.8386C156.557 56.8386 156.46 56.7986 156.389 56.7274C156.317 56.6561 156.277 56.5594 156.277 56.4586V51.6456C156.277 51.5448 156.317 51.4482 156.389 51.377C156.46 51.3057 156.557 51.2656 156.657 51.2656C156.758 51.2656 156.855 51.3057 156.926 51.377C156.997 51.4482 157.037 51.5448 157.037 51.6456V56.4586C157.037 56.5594 156.997 56.6561 156.926 56.7274C156.855 56.7986 156.758 56.8386 156.657 56.8386Z" fill="#0058CE"/>
<path d="M174.299 58.9274H159.071C159.02 58.9301 158.968 58.9222 158.92 58.9044C158.872 58.8865 158.828 58.8589 158.79 58.8234C158.753 58.7879 158.723 58.7452 158.703 58.6978C158.682 58.6505 158.672 58.5995 158.672 58.5479C158.672 58.4964 158.682 58.4454 158.703 58.398C158.723 58.3507 158.753 58.3079 158.79 58.2724C158.828 58.2369 158.872 58.2094 158.92 58.1915C158.968 58.1737 159.02 58.1658 159.071 58.1685H174.299C174.351 58.1658 174.402 58.1737 174.451 58.1915C174.499 58.2094 174.543 58.2369 174.581 58.2724C174.618 58.3079 174.648 58.3507 174.668 58.398C174.688 58.4454 174.699 58.4964 174.699 58.5479C174.699 58.5995 174.688 58.6505 174.668 58.6978C174.648 58.7452 174.618 58.7879 174.581 58.8234C174.543 58.8589 174.499 58.8865 174.451 58.9044C174.402 58.9222 174.351 58.9301 174.299 58.9274Z" fill="#0058CE"/>
<path d="M153.923 58.9274H139.023C138.925 58.9224 138.834 58.8803 138.767 58.8096C138.7 58.739 138.662 58.6453 138.662 58.5479C138.662 58.4505 138.7 58.3568 138.767 58.2862C138.834 58.2156 138.925 58.1735 139.023 58.1685H153.923C154.02 58.1735 154.112 58.2156 154.179 58.2862C154.246 58.3568 154.283 58.4505 154.283 58.5479C154.283 58.6453 154.246 58.739 154.179 58.8096C154.112 58.8803 154.02 58.9224 153.923 58.9274Z" fill="#0058CE"/>
<path d="M156.658 61.5835C156.106 61.5833 155.566 61.4195 155.107 61.1126C154.648 60.8057 154.291 60.3696 154.08 59.8595C153.868 59.3494 153.813 58.7881 153.921 58.2466C154.029 57.7051 154.295 57.2077 154.685 56.8173C155.075 56.4269 155.573 56.161 156.114 56.0532C156.656 55.9455 157.217 56.0006 157.727 56.2118C158.237 56.423 158.673 56.7807 158.98 57.2397C159.287 57.6987 159.451 58.2384 159.451 58.7905C159.449 59.5307 159.154 60.24 158.631 60.7634C158.108 61.2868 157.398 61.5817 156.658 61.5835ZM156.658 56.7585C156.256 56.7585 155.863 56.8778 155.529 57.1012C155.194 57.3246 154.934 57.6422 154.78 58.0138C154.626 58.3853 154.586 58.7941 154.664 59.1885C154.743 59.5829 154.937 59.9451 155.221 60.2294C155.505 60.5137 155.868 60.7072 156.262 60.7856C156.657 60.8639 157.065 60.8235 157.437 60.6695C157.808 60.5155 158.126 60.2547 158.349 59.9203C158.572 59.5858 158.691 59.1926 158.691 58.7905C158.69 58.2517 158.476 57.7351 158.095 57.3542C157.714 56.9732 157.197 56.7591 156.658 56.7585Z" fill="#0058CE"/>
<path d="M172.277 52.0257H141.911C140.869 52.0299 139.837 51.8168 138.881 51.3999C137.926 50.9829 137.068 50.3714 136.362 49.6043C135.656 48.8371 135.118 47.9312 134.782 46.9444C134.445 45.9576 134.319 44.9116 134.409 43.8731C134.5 42.8345 134.806 41.8263 135.308 40.9128C135.811 39.9992 136.498 39.2004 137.326 38.5673C138.154 37.9342 139.105 37.4807 140.119 37.2357C141.132 36.9908 142.185 36.9598 143.211 37.1447C144.01 35.4634 145.27 34.0432 146.844 33.049C148.417 32.0547 150.241 31.5272 152.102 31.5277C152.356 31.5277 152.61 31.5377 152.863 31.5577C154.478 29.43 156.72 27.8628 159.273 27.0771C161.826 26.2914 164.562 26.3268 167.093 27.1783C169.625 28.0298 171.826 29.6544 173.385 31.8232C174.945 33.992 175.784 36.5955 175.785 39.2667C175.785 39.4327 175.785 39.6007 175.775 39.7667C176.999 40.5265 177.942 41.6644 178.461 43.008C178.98 44.3516 179.047 45.8278 178.652 47.2129C178.257 48.5981 177.421 49.8168 176.271 50.6845C175.122 51.5522 173.721 52.0216 172.28 52.0217L172.277 52.0257ZM141.91 37.7917C140.123 37.7917 138.41 38.5016 137.146 39.7651C135.883 41.0286 135.173 42.7423 135.173 44.5292C135.173 46.3161 135.883 48.0298 137.146 49.2934C138.41 50.5569 140.123 51.2667 141.91 51.2667H172.277C173.57 51.2665 174.827 50.839 175.852 50.0508C176.878 49.2625 177.614 48.1577 177.946 46.908C178.278 45.6583 178.189 44.3338 177.691 43.1404C177.193 41.9469 176.314 40.9515 175.192 40.3087L174.992 40.1917L175.006 39.9577C175.02 39.7257 175.027 39.4947 175.027 39.2677C175.026 36.7385 174.225 34.2744 172.74 32.2273C171.255 30.1802 169.16 28.6548 166.757 27.8687C164.353 27.0827 161.762 27.0764 159.354 27.8506C156.946 28.6248 154.845 30.1399 153.349 32.1797L153.221 32.3547L153.005 32.3327C152.706 32.3026 152.406 32.2876 152.105 32.2877C150.34 32.2872 148.612 32.8014 147.134 33.7674C145.656 34.7334 144.491 36.1093 143.783 37.7267L143.658 38.0127L143.358 37.9457C142.883 37.842 142.398 37.7904 141.911 37.7917H141.91Z" fill="#0058CE"/>
</g>
</g>
<defs>
<clipPath id="clip0_2945_963">
<rect width="220" height="185" fill="white"/>
</clipPath>
</defs>
</svg>
