<svg width="138" height="24" viewBox="0 0 138 24" fill="none" xmlns="http://www.w3.org/2000/svg">
<g clip-path="url(#clip0_3142_504)">
<path d="M121.501 20C130.612 20 138.001 12.8371 138.001 4H105C105 12.8371 112.388 20 121.501 20Z" fill="#555555"/>
<path d="M114.912 7.03242H116.502V12.7079H114.912V7.03242ZM128.038 7.03242H126.444V12.7079H128.038V7.03242ZM113.954 7.03242H112.484V9.9201L110.646 7.03242H109.102V12.7054H110.646V9.6961L111.715 11.3703C111.948 11.739 112.32 12.2023 112.789 12.4686C113.078 12.6286 113.51 12.7809 114.032 12.7809V7.03242H113.954ZM133.77 7.03242H132.302V9.9201L130.463 7.03242H128.916V12.7054H130.463V9.6961L131.53 11.3703C131.759 11.739 132.133 12.2023 132.603 12.4686C132.893 12.6286 133.321 12.7809 133.847 12.7809V7.03242H133.77ZM125 10.491C124.253 10.002 123.623 9.82794 123.427 9.73962C123.201 9.63466 123.056 9.41194 123.056 9.16874C123.056 8.81546 123.365 8.53002 123.742 8.53002H125.522V7.03242H123.398C122.225 7.03114 121.273 7.95146 121.271 9.0881C121.271 9.1841 121.277 9.27882 121.291 9.37354C121.143 9.18026 120.962 9.01258 120.756 8.8769C120.01 8.38922 119.379 8.21386 119.182 8.12554C118.958 8.0193 118.815 7.79914 118.814 7.55722C118.814 7.20394 119.122 6.9185 119.5 6.9185H121.28V5.4209H119.156C117.982 5.42346 117.033 6.34762 117.034 7.48554C117.036 8.23946 117.461 8.93066 118.143 9.29162C118.385 9.41962 118.582 9.52714 118.902 9.66026C119.111 9.74346 119.992 10.0199 119.992 10.5729C119.992 10.9198 119.644 11.2039 119.217 11.2039H117.038V12.7041H119.56C120.748 12.7041 121.716 11.7671 121.716 10.6139C121.716 10.5127 121.705 10.418 121.695 10.322C121.877 10.5601 122.112 10.7598 122.386 10.9031C122.628 11.0311 122.823 11.1374 123.145 11.2705C123.351 11.355 124.237 11.6327 124.237 12.1831C124.237 12.53 123.889 12.8129 123.46 12.8129H121.284V14.3131H123.804C124.793 14.9518 126.128 14.6932 126.788 13.7345C127.448 12.7758 127.18 11.4817 126.191 10.8417C125.839 10.6139 125.425 10.4923 125.003 10.491" fill="white"/>
</g>
<path d="M19.592 9.10948V15.0484H20.9801V9.10948H19.592ZM17.0934 6.84575H15.6657C15.507 6.84575 15.5335 6.99222 15.5335 6.99222C15.5599 7.17865 15.5996 7.48492 15.5996 8.12409C15.5996 9.53559 15.4277 11.5596 13.8942 13.4905L13.7884 13.6236C13.7884 13.6236 12.863 7.12538 12.8498 7.00554C12.8498 7.00554 12.8498 6.85906 12.7176 6.85906H11.2766C11.1444 6.85906 11.1444 7.00554 11.1444 7.00554C11.1048 7.75124 10.6949 14.0098 6.1605 15.0218C7.12556 15.1283 8.28892 14.8221 9.30685 14.1962C10.5627 13.4106 11.4088 12.2521 11.6864 10.9205C11.6864 10.9205 12.2417 14.4093 12.3078 15.2082V15.2615L12.2681 15.2881C10.999 15.9672 9.55803 16.3401 8.11706 16.3401C4.54767 16.3401 1.3881 14.2095 0 10.9604C0.819638 14.7821 4.20395 17.5652 8.15672 17.5652C12.7705 17.5652 15.5202 13.6769 15.9962 10.9071C15.9962 10.9071 16.6175 14.9419 16.6307 15.0751H18.5212C18.4947 14.902 17.2388 7.15202 17.2256 7.03217C17.2256 7.03217 17.2256 6.88569 17.0934 6.88569V6.84575ZM1.11048 10.2413C1.11048 5.9802 4.67987 2.51803 9.05567 2.51803C11.7658 2.51803 14.2908 3.88958 15.7582 6.11336C14.6874 3.0773 11.6997 1 8.35502 1C4.03209 1 0.515578 4.39559 0.515578 8.56352C0.515578 9.7087 0.793198 10.8272 1.30878 11.8526C1.1898 11.3333 1.11048 10.7873 1.11048 10.2547V10.2413ZM34.2397 9.9617C33.7373 9.3758 33.0367 9.06953 32.1906 9.06953C31.3313 9.06953 30.6042 9.34916 30.0225 9.90844C29.4541 10.4544 29.1632 11.1868 29.1632 12.0923C29.1632 12.9844 29.4409 13.7035 29.9961 14.2362C30.5513 14.7688 31.3577 15.0351 32.3625 15.0351C34.319 15.0351 34.7421 13.6769 34.9007 13.2375L34.3983 13.0777C33.9489 13.9033 32.9441 13.9565 32.3492 13.9166C31.9262 13.8899 31.5428 13.7435 31.2388 13.5304C30.9347 13.304 30.7232 12.9844 30.6306 12.4918L30.6042 12.3053H34.9932C34.98 11.3333 34.7288 10.5476 34.2397 9.97502V9.9617ZM30.71 11.4664C30.6439 11.4664 30.6439 11.3998 30.6439 11.3732C30.6967 11.027 30.8289 10.7607 31.0669 10.521C31.3313 10.2413 31.7411 10.0815 32.1774 10.0815C32.574 10.0815 32.8913 10.2014 33.1689 10.4278C33.3936 10.6275 33.5523 10.9071 33.6448 11.2933C33.658 11.3333 33.6845 11.4531 33.5787 11.4531H30.71V11.4664ZM38.6552 9.0429C36.9895 9.0429 36.3946 10.0682 36.2095 10.5476C36.2095 10.5609 36.1434 10.7207 36.1434 10.7207L36.6986 10.9071C36.6986 10.9071 37.0556 9.86849 38.4701 9.93507C39.8978 9.98834 39.726 11.1735 39.726 11.3599C38.9328 11.1202 37.8091 11.1468 37.0688 11.4797C36.1434 11.9058 35.998 12.7581 36.0376 13.3839C36.0773 14.3161 36.8969 14.9685 37.9545 15.0218C38.9063 15.0751 39.3294 14.862 39.726 14.4758L39.7128 15.0218H40.9687V13.4638V11.5463V11.2134V10.9338C40.9951 10.228 40.506 9.02958 38.6552 9.02958V9.0429ZM39.7128 13.6502C39.7128 13.7435 39.6863 13.81 39.607 13.85C39.369 13.9698 38.8667 14.1296 38.2453 14.0897C37.5976 14.0364 37.3464 13.5704 37.3067 13.3706C37.2935 13.2907 37.1481 12.4252 37.9809 12.1589C38.523 11.9857 39.2104 12.0923 39.5806 12.1988C39.6863 12.2254 39.7128 12.292 39.7128 12.4252V13.6636V13.6502ZM20.8875 6.84575H19.7374C19.5655 6.84575 19.592 7.01886 19.592 7.01886C19.592 7.20528 19.592 8.08414 19.592 8.27056H21.0065V7.00554C21.0065 7.00554 21.0197 6.85906 20.8743 6.85906L20.8875 6.84575ZM27.947 6.84575H26.7704C26.6514 6.84575 26.6514 6.97891 26.6514 6.97891V9.41574L26.4796 9.32253C26.2945 9.22932 26.1094 9.16274 25.9111 9.12279C25.7128 9.08284 25.4749 9.06953 25.2105 9.06953C24.2851 9.06953 23.5315 9.33585 22.9763 9.88181C22.4343 10.4144 22.1434 11.1868 22.1434 12.1322C22.1434 12.9711 22.3814 13.6769 22.8441 14.2362C23.3068 14.7821 23.981 15.0618 24.8667 15.0618C26.1359 15.0618 26.6382 14.2894 26.6382 14.2894V15.0351H28.066V13.6369C28.066 12.0656 28.066 6.99222 28.066 6.99222C28.066 6.99222 28.066 6.84575 27.947 6.84575ZM26.5721 13.4239C26.4399 13.5437 26.2681 13.6369 26.0565 13.7168C25.8318 13.81 25.5674 13.85 25.2766 13.85C24.8006 13.85 24.4173 13.6902 24.1396 13.3706C23.862 13.051 23.7298 12.585 23.7298 11.9591C23.7298 11.3466 23.862 10.8938 24.1132 10.6142C24.3776 10.3212 24.7742 10.1748 25.303 10.1748C25.5806 10.1748 25.845 10.2147 26.083 10.3079C26.2945 10.3878 26.4531 10.4677 26.5721 10.5742C26.6118 10.6142 26.6514 10.6808 26.6514 10.774V13.2108C26.6514 13.304 26.6118 13.3706 26.5721 13.4106V13.4239Z" fill="#555555"/>
<path d="M41.828 5.86035C41.3389 5.86035 40.9688 6.2332 40.9688 6.7259C40.9688 7.20527 41.3389 7.59144 41.828 7.59144C42.3172 7.59144 42.6873 7.21859 42.6873 6.7259C42.6873 6.24652 42.3172 5.86035 41.828 5.86035ZM41.828 5.9802C42.2379 5.9802 42.5551 6.3131 42.5551 6.7259C42.5551 7.13869 42.2511 7.47159 41.828 7.47159C41.4182 7.47159 41.1009 7.13869 41.1009 6.7259C41.1009 6.3131 41.405 5.9802 41.828 5.9802ZM41.643 6.77916H41.8545L42.1321 7.21859H42.2775L41.9867 6.77916C42.1189 6.75253 42.2379 6.67263 42.2379 6.49952C42.2379 6.32641 42.1453 6.21988 41.9206 6.21988H41.5372V7.21859H41.6562V6.77916H41.643ZM41.643 6.67263V6.32641H41.8677C41.9867 6.32641 42.1057 6.35305 42.1057 6.49952C42.1057 6.67263 41.9602 6.67263 41.8148 6.67263H41.6562H41.643Z" fill="#555555"/>
<path d="M59.9919 8.7559L53 15.752H59.9924V8.75539" fill="#555555" fill-opacity="0.9"/>
<path d="M66.5529 11.8124L70.4857 15.7471L86.2321 0.00018016H68.741L62.6152 6.12911V15.7445H66.7756L62.8491 11.8162L66.7748 7.88231H70.4863L66.5465 11.829L66.5525 11.8123" fill="#555555" fill-opacity="0.9"/>
<path d="M62.6162 19.5362H63.5748V21.0925L64.6885 19.5362H65.7626L64.4396 21.1909L65.8983 23.1372H64.706L63.5734 21.4671V23.1372H62.6143V19.5359H62.6152L62.6163 19.5357L62.6162 19.5362ZM66.1621 19.245H67.076V23.1374H66.1618V19.2452L66.1621 19.2453V19.245ZM69.2488 21.9232C68.9804 21.9232 68.7871 21.9527 68.6689 22.0108C68.5505 22.0683 68.4918 22.1625 68.4918 22.2908C68.4918 22.3833 68.5233 22.4589 68.5866 22.5167C68.6499 22.5741 68.7337 22.6024 68.8382 22.6024C69.0042 22.6024 69.1396 22.5471 69.2451 22.4353C69.3502 22.3243 69.4031 22.1785 69.4031 21.9994V21.9232H69.2488ZM70.2637 21.7414V23.1376H69.4715L69.4516 22.7225C69.3436 22.8758 69.2131 22.9889 69.0602 23.0603C68.9074 23.1324 68.7232 23.1675 68.5068 23.1675C68.2365 23.1675 68.0215 23.091 67.8609 22.9369C67.7008 22.7836 67.6202 22.5775 67.6202 22.3215C67.6202 22.0263 67.7372 21.807 67.9696 21.6639C68.2032 21.5214 68.5616 21.45 69.0459 21.45H69.403V21.4147C69.403 21.2687 69.3477 21.1571 69.2361 21.0798C69.1254 21.002 68.9626 20.9627 68.75 20.9627C68.646 20.9627 68.5259 20.9809 68.3932 21.0183C68.2597 21.0557 68.1161 21.1097 67.9632 21.1811L67.9477 20.5783C68.0959 20.516 68.2568 20.4689 68.4295 20.439C68.6023 20.4086 68.793 20.3934 69.0006 20.3934C69.436 20.3934 69.7555 20.5018 69.9586 20.7189C70.1614 20.9365 70.2635 21.2767 70.2635 21.7417V21.7405L70.2637 21.7414ZM72.4056 21.0664C72.2254 21.0664 72.0814 21.1303 71.9754 21.259C71.8687 21.3865 71.8158 21.5621 71.8158 21.7817C71.8158 22.0059 71.8662 22.182 71.9674 22.3088C72.0687 22.4355 72.2079 22.4991 72.3847 22.4991C72.5524 22.4991 72.6853 22.4368 72.7853 22.3129C72.8843 22.1882 72.9343 22.0218 72.9343 21.8149C72.9343 21.5912 72.8848 21.4108 72.7865 21.2733C72.6868 21.1351 72.5602 21.0662 72.4056 21.0662V21.0664ZM70.9015 19.245H71.8158V20.8379C71.9216 20.6904 72.0471 20.5797 72.1912 20.507C72.3351 20.4344 72.5024 20.398 72.6917 20.398C73.0494 20.398 73.3347 20.5214 73.548 20.769C73.7611 21.0165 73.8684 21.3492 73.8684 21.7662C73.8684 22.1884 73.7588 22.5289 73.5393 22.7888C73.3196 23.0482 73.0338 23.1777 72.681 23.1777C72.4704 23.1777 72.2831 23.1281 72.1182 23.0307C71.9538 22.9333 71.8195 22.7903 71.7168 22.6025V23.1374H70.9015V19.2448V19.245ZM74.4578 20.4684H75.3719V23.1374H74.4578V20.4686V20.4684ZM74.4578 19.245H75.3719V19.987H74.4578V19.245ZM78.864 21.576V23.1373H77.9578V21.7664C77.9578 21.5569 77.9207 21.4006 77.8459 21.2983C77.7717 21.1966 77.6595 21.145 77.5077 21.145C77.349 21.145 77.2226 21.2094 77.1266 21.3384C77.0317 21.4662 76.9841 21.638 76.9841 21.8549V23.1373H76.0702V20.4688H76.9005V20.9483C77.0053 20.7691 77.1407 20.6326 77.3063 20.5388C77.471 20.445 77.657 20.3979 77.8647 20.3979C78.1904 20.3979 78.4383 20.4984 78.6083 20.698C78.7782 20.8989 78.8644 21.1917 78.8644 21.5764" fill="#555555" fill-opacity="0.9"/>
<defs>
<clipPath id="clip0_3142_504">
<rect width="33" height="16" fill="white" transform="translate(105 4)"/>
</clipPath>
</defs>
</svg>
