<svg width="140" height="30" viewBox="0 0 140 30" fill="none" xmlns="http://www.w3.org/2000/svg">
<path d="M63.8465 12.4819C63.8442 12.9466 63.7404 13.181 63.6118 13.1985C63.5275 13.21 63.4301 13.1291 63.3422 12.9604C63.0532 12.4093 62.7369 11.8839 62.4008 11.3681C62.4008 11.3672 62.4012 11.3658 62.4016 11.3649C62.5319 10.5513 62.7405 9.72166 63.0976 9C63.5441 10.0443 63.8521 11.3199 63.8465 12.4819ZM62.1708 12.4548C62.4863 12.783 62.5726 13.045 62.5022 13.1879C62.4563 13.2817 62.3411 13.3258 62.172 13.3028C61.6063 13.2256 61.0422 13.1953 60.4714 13.1907C60.471 13.1898 60.4702 13.1888 60.4694 13.1879C59.9306 12.4433 59.4429 11.6044 59.1298 10.6984C60.1978 10.9921 61.3538 11.6058 62.1708 12.4552M61.0937 14.1537C61.5153 14.0502 61.7457 14.1353 61.7975 14.2971C61.8316 14.4032 61.7892 14.5448 61.6701 14.6965C61.2754 15.1966 60.9136 15.722 60.5664 16.269H60.5632C59.7133 16.3421 58.8293 16.3012 58 16.0612C58.8452 15.192 59.9904 14.4244 61.0941 14.1541M61.5759 16.2488C61.7603 15.7932 61.9571 15.6218 62.0925 15.6696C62.1815 15.7008 62.2468 15.8259 62.2706 16.0267C62.3466 16.6606 62.4563 17.2825 62.5901 17.9049C62.5897 17.9058 62.5889 17.9067 62.5881 17.9077C62.1257 18.6698 61.6297 19.4034 61.0074 20C60.9338 18.7686 61.1261 17.3597 61.5759 16.2488ZM63.1724 16.9962C63.0085 16.5792 63.0208 16.2966 63.1316 16.1991C63.2044 16.1352 63.3208 16.1472 63.4562 16.24C63.8695 16.5232 64.2954 16.7879 64.742 16.998C64.742 16.9989 64.742 17.0003 64.7424 17.0012C64.9031 17.7803 64.9965 18.5981 64.9554 19.3997C64.2119 18.8343 63.5374 17.9242 63.1724 16.9962ZM64.5785 15.9693C64.2384 15.882 64.0757 15.705 64.0864 15.5441C64.0932 15.4384 64.1723 15.3368 64.3117 15.2651C64.7392 15.0449 65.1612 14.8027 65.5587 14.5126C65.5594 14.5131 65.5602 14.5136 65.5606 14.514C66.0871 14.8261 66.593 15.2223 67 15.7238C66.2601 16.0585 65.3445 16.166 64.5785 15.9693ZM64.8572 14.0323C64.588 14.3058 64.3806 14.3518 64.2899 14.241C64.2305 14.1684 64.2186 14.0277 64.2634 13.8457C64.4063 13.2688 64.5171 12.686 64.6094 12.0939C64.6102 12.0939 64.611 12.0935 64.6117 12.093C65.1545 11.7979 65.6992 11.5276 66.3017 11.4546C66.0171 12.3987 65.5013 13.3787 64.8572 14.0328" fill="#2F2F2F" fill-opacity="0.9"/>
<path d="M64.21 9.05118C63.7795 9.75098 63.5277 10.556 63.3705 11.3455C63.3705 11.3464 63.37 11.3477 63.3695 11.3486C63.2615 11.2175 63.1182 11.0596 62.9939 10.9155C62.5237 10.3687 62.0038 9.85758 61.4777 9.35536C62.3412 9.032 63.2892 8.92585 64.21 9.05118ZM58 13.3343C58.8047 13.2424 59.6132 13.1585 60.4141 13.1331C60.621 13.1264 60.8556 13.1166 61.041 13.1166C61.04 13.1157 61.0395 13.1144 61.0386 13.1139C60.3882 12.3914 59.7995 11.5774 59.4216 10.6988C58.7039 11.4387 58.2141 12.3575 58 13.3347M59.5855 18.4706C59.9639 17.8266 60.3629 17.1892 60.7992 16.588C60.9148 16.4283 61.0453 16.245 61.1547 16.1036C61.1533 16.1036 61.1523 16.1036 61.1509 16.1036C60.1254 16.1745 59.0584 16.1353 58.0573 15.902C58.3135 16.8654 58.8381 17.7623 59.5855 18.4706ZM64.4155 19.9237C64.1718 19.3506 63.9381 18.7739 63.7522 18.1919C63.7006 18.0304 63.64 17.8426 63.5974 17.6905C63.597 17.6914 63.596 17.6923 63.5955 17.6932C63.0374 18.4323 62.4387 19.1441 61.6875 19.7235C62.5944 19.9715 63.4751 20.0879 64.4155 19.9237ZM68.1804 17.4198C67.6572 17.2962 67.1358 17.1558 66.6355 16.9715C66.4931 16.9189 66.3273 16.8636 66.1954 16.811C66.1954 16.8119 66.1955 16.8132 66.1959 16.8141C66.3899 17.5701 66.5027 18.3631 66.453 19.1414C67.1578 18.6972 67.7489 18.104 68.1804 17.4202M68.8819 13.2553C68.4618 13.5778 68.0299 13.89 67.5735 14.163C67.446 14.2392 67.3012 14.3316 67.1803 14.3998C67.1812 14.3998 67.1817 14.4007 67.1827 14.4012C67.8182 14.704 68.4289 15.088 68.9201 15.5746C69.0367 14.7705 69.0271 14.0555 68.8819 13.2553ZM66.2848 9.76392C66.2466 10.3665 66.1998 10.9704 66.1123 11.5596C66.0884 11.7193 66.0617 11.9057 66.0349 12.0529C66.0359 12.0529 66.0368 12.052 66.0378 12.052C66.6929 11.7656 67.3504 11.5034 68.0777 11.4325C67.6208 10.7612 67.0087 10.185 66.2853 9.76436" fill="#555555" fill-opacity="0.9"/>
<path d="M100.272 10.0113L99.2028 18.8509H97.8424V17.8628C97.1681 18.6172 96.4678 18.9989 95.7583 18.9989C95.2599 18.9989 94.8917 18.8306 94.6324 18.4842C94.2321 17.9497 94.1143 17.0049 94.2733 15.597C94.5866 12.9575 95.428 12.4272 96.6844 12.4272C97.1814 12.4272 97.7499 12.4797 98.256 12.5671L98.5652 10.0113H100.272ZM97.3376 13.8834C96.3899 13.8834 96.1875 14.0244 96.0001 15.6447C95.9039 16.4752 95.876 16.9931 96.0166 17.1813C96.0748 17.2596 96.1733 17.2918 96.3235 17.2843C96.8411 17.2725 97.2529 16.9524 97.7838 16.4028L98.0838 13.8834H97.3372H97.3376ZM81.9651 12.4272C80.9995 12.4272 80.3386 12.662 79.8851 13.166C79.4371 13.6641 79.1729 14.4249 79.0272 15.6329C78.8815 16.8334 79.0061 17.6805 79.4078 18.2226C79.7953 18.7448 80.4526 18.9989 81.4173 18.9989C81.8914 18.9989 82.5885 18.9485 83.2156 18.7073L83.2595 18.6906L83.4364 17.214L83.3232 17.236C82.8872 17.3089 82.3375 17.3459 81.6907 17.3459C81.2432 17.3459 81.0206 17.2816 80.896 17.1165C80.7421 16.9122 80.7128 16.5138 80.7957 15.7423C80.9446 14.3118 81.3243 14.0813 82.1753 14.0813C82.5203 14.0813 83.8078 14.107 83.8078 14.107L83.975 12.706C83.975 12.706 83.2536 12.4277 81.9646 12.4277M93.5436 13.1221C93.8029 13.4722 93.8899 13.9628 93.8097 14.6228C93.6439 15.9535 92.8465 16.2838 91.6139 16.3862L90.1486 16.5154C90.188 17.2366 90.5091 17.3711 91.1137 17.3711C91.6349 17.3711 92.8909 17.2993 93.0961 17.2382L93.1786 17.2135L93.1882 17.3127C93.239 17.8349 93.3874 18.4118 93.3888 18.4177L93.408 18.4928L93.3462 18.5234C92.6797 18.8509 91.629 19 90.9346 19C89.9502 19 89.2732 18.7389 88.8651 18.2011C88.4492 17.6532 88.3059 16.798 88.4277 15.5868C88.6723 13.225 89.451 12.4283 91.5136 12.4283C92.5332 12.4283 93.1969 12.6556 93.5432 13.1226M91.3697 15.1407C91.8672 15.0941 92.098 14.9804 92.1562 14.4282C92.1704 14.2357 92.1534 14.1183 92.1008 14.0512C92.0234 13.952 91.8397 13.9322 91.5694 13.9322C91.5195 13.9322 91.4659 13.9327 91.4096 13.9338C90.6103 13.9338 90.4129 14.2528 90.2562 15.2651L91.3702 15.1407H91.3697ZM88.6164 12.6015H88.2871C87.6618 12.6015 87.0499 12.9639 86.2611 13.8073V12.6015H84.9108L84.1633 18.8526H85.8727L86.2868 15.2571C86.5021 14.9359 87.1007 14.5579 87.546 14.5579H87.9106L87.9234 14.4893C87.9248 14.4812 88.0791 13.6775 88.5505 12.7323L88.616 12.6015H88.6164ZM70.6756 12.3184C70.5327 13.6084 70.9179 14.3708 71.9641 14.8689L73.3456 15.5123C73.7844 15.6999 73.881 15.7959 73.8247 16.3036C73.7395 16.9588 73.5215 17.1342 72.5559 17.1342H70.2089L70 18.8509H72.6242C74.6684 18.8509 75.355 18.2869 75.5625 16.4366C75.6903 15.2689 75.5176 14.4308 74.2621 13.8609L72.9562 13.2792C72.4501 13.0577 72.3571 12.9693 72.424 12.4508C72.5014 11.8728 72.6832 11.7479 73.062 11.7168H75.8625L76.0714 10H73.5719C71.8707 10 70.9051 10.3694 70.6761 12.3178M76.0842 18.852H77.7822L78.5298 12.6009H76.8318L76.0842 18.852ZM78.6356 11.7168L78.8408 10H77.1428L76.9376 11.7168H78.6356ZM100.243 18.852H101.941L102.689 12.6009H100.991L100.243 18.852ZM102.795 11.7168L103 10H101.302L101.097 11.7168H102.795Z" fill="#555555" fill-opacity="0.9"/>
<path d="M29.1706 19.2457V22.055C28.9458 22.1091 28.7153 22.1362 28.4841 22.1358C27.859 22.1358 27.5307 21.7987 27.5307 21.0665V19.2457C27.4416 19.2282 27.351 19.2194 27.2603 19.2194C27.1637 19.2194 27.0673 19.2282 26.9723 19.2457V21.0806C26.9723 22.0761 27.4991 22.58 28.4507 22.58C28.8831 22.5729 29.3128 22.5098 29.7289 22.3922V19.2457C29.6375 19.2282 29.5446 19.2194 29.4515 19.2194C29.3573 19.2194 29.2632 19.2282 29.1706 19.2457ZM31.9272 19.2194C31.5688 19.221 31.2351 19.4024 31.0388 19.7022C31.0317 19.549 31.0141 19.3965 30.9861 19.2457C30.9092 19.2265 30.8301 19.2176 30.7508 19.2194C30.6693 19.2194 30.5881 19.2282 30.5085 19.2457V22.5414C30.597 22.5589 30.687 22.5678 30.7772 22.5677C30.8737 22.5678 30.9701 22.559 31.0651 22.5414V20.6767C31.0651 20.0797 31.4426 19.6759 31.9202 19.6759C32.0055 19.6718 32.091 19.6783 32.1748 19.6952C32.1938 19.6165 32.2032 19.5357 32.2029 19.4547C32.2029 19.3845 32.1959 19.3145 32.1818 19.2457C32.0978 19.2299 32.0127 19.2211 31.9272 19.2194ZM23.4554 20.9067C23.4554 21.8672 24.0348 22.4589 24.8601 22.4589C25.1341 22.4624 25.406 22.4098 25.659 22.3044V22.5537C25.659 23.2385 25.3078 23.5211 24.6775 23.5211C24.3383 23.523 24.003 23.4492 23.696 23.3052C23.6834 23.3788 23.6769 23.4534 23.6766 23.5282C23.6766 23.6047 23.6834 23.681 23.696 23.7564C24.0241 23.9023 24.3798 23.9759 24.7389 23.9724C25.673 23.9724 26.2173 23.4456 26.2173 22.4922V19.3809C25.8796 19.2581 25.5232 19.1945 25.1638 19.1931C24.0752 19.1931 23.4695 19.92 23.4695 20.9085M25.659 21.8742C25.437 21.9688 25.1979 22.0166 24.9566 22.0147C24.393 22.0147 24.0296 21.5845 24.0296 20.919C24.0296 20.1324 24.4334 19.6426 25.1252 19.6426C25.3067 19.6357 25.4881 19.6582 25.6625 19.7093L25.659 21.8742ZM37.3913 20.6908L37.0682 20.5433C36.7452 20.3958 36.5714 20.301 36.5714 20.0517C36.5714 19.7426 36.8733 19.6426 37.2087 19.6426C37.477 19.6443 37.743 19.6918 37.9953 19.783C38.0094 19.7077 38.0164 19.6313 38.0164 19.5548C38.0164 19.4869 38.0094 19.4192 37.9953 19.3528C37.7226 19.2407 37.4298 19.1857 37.135 19.1913C36.531 19.1913 36.02 19.5337 36.02 20.0394C36.02 20.4695 36.1956 20.7171 36.7926 20.9735L37.0419 21.0806C37.4247 21.2561 37.5687 21.3896 37.5687 21.653C37.5687 22.0041 37.2333 22.1305 36.9102 22.1305C36.5848 22.1302 36.2626 22.0658 35.9621 21.9409C35.927 22.0869 35.927 22.2391 35.9621 22.3851C36.2828 22.5291 36.6328 22.5958 36.984 22.58C37.6161 22.58 38.127 22.2289 38.127 21.6582C38.127 21.1947 37.8917 20.919 37.3878 20.6908M21.6557 19.1913C20.7778 19.1913 20.2177 19.8778 20.2177 20.8997C20.2177 21.9216 20.7954 22.58 21.7979 22.58C22.1263 22.5835 22.4524 22.5239 22.7583 22.4044C22.7724 22.3339 22.7795 22.2622 22.7794 22.1902C22.7795 22.1177 22.7724 22.0454 22.7583 21.9743C22.4625 22.078 22.1518 22.1325 21.8383 22.1358C21.1658 22.1358 20.7954 21.7056 20.762 21.0068H22.9339C22.9465 20.8861 22.9529 20.7648 22.9533 20.6434C22.9533 19.7497 22.4265 19.1913 21.6627 19.1913M20.769 20.596C20.8164 19.9902 21.1851 19.6267 21.6469 19.6267C22.1456 19.6267 22.4212 20.0306 22.4212 20.596H20.769ZM34.0324 19.1913C33.1387 19.1913 32.5804 19.8164 32.5804 20.8927C32.5804 21.969 33.1317 22.5871 34.0254 22.5871C34.9191 22.5871 35.4845 21.9479 35.4845 20.8927C35.4845 19.8111 34.9578 19.1913 34.0324 19.1913ZM34.0324 22.1358C33.4548 22.1358 33.1545 21.6933 33.1545 20.8927C33.1545 20.092 33.4706 19.6426 34.0412 19.6426C34.6119 19.6426 34.9297 20.0657 34.9297 20.8927C34.9297 21.7197 34.6189 22.1358 34.0342 22.1358M18.9851 20.6925L18.662 20.545C18.339 20.3976 18.1651 20.3027 18.1651 20.0534C18.1651 19.7444 18.4671 19.6443 18.8043 19.6443C19.0725 19.6461 19.3386 19.6935 19.5909 19.7848C19.6035 19.7093 19.6099 19.633 19.6102 19.5565C19.6102 19.4888 19.6034 19.4212 19.5909 19.3546C19.3179 19.2432 19.0252 19.1883 18.7305 19.1931C18.1248 19.1931 17.6138 19.5354 17.6138 20.0411C17.6138 20.4713 17.7894 20.7189 18.3864 20.9752L18.6357 21.0823C19.0185 21.2579 19.1624 21.3913 19.1624 21.6547C19.1624 22.0059 18.8271 22.1323 18.504 22.1323C18.1786 22.1319 17.8564 22.0676 17.5559 21.9427C17.5366 22.0154 17.5277 22.0905 17.5295 22.1657C17.5295 22.2402 17.5383 22.3144 17.5559 22.3869C17.8766 22.5308 18.2266 22.5976 18.5778 22.5818C19.2098 22.5818 19.7208 22.2306 19.7208 21.66C19.7208 21.1964 19.4855 20.9208 18.9816 20.6925" fill="#555555"/>
<path d="M29.6714 9.85821V11.0159C29.4459 10.9611 29.2142 10.9364 28.9823 10.9424C27.5257 10.9424 26.5403 11.9203 26.5403 13.4757C26.5403 15.0311 27.5054 15.9481 29.0127 15.9481C29.6829 15.9552 30.35 15.8551 30.9886 15.6517V8.79425C30.594 8.93044 30.2237 9.12885 29.8917 9.38196C29.7399 9.49131 29.6555 9.67154 29.6688 9.85821M29.6688 14.8082C29.4863 14.8616 29.2966 14.8864 29.1064 14.8816C28.235 14.8816 27.8956 14.3091 27.8956 13.4807C27.8956 12.5561 28.235 11.9937 29.0963 11.9937C29.2896 11.9917 29.4823 12.0163 29.6688 12.0672V14.8082ZM23.779 10.9222C23.2997 10.9123 22.8211 10.9651 22.3554 11.0792C22.2769 11.4218 22.2769 11.7778 22.3554 12.1204C22.7491 12.0243 23.1534 11.9783 23.5587 11.9836C24.2376 11.9836 24.5719 12.2597 24.5719 12.8221V12.8753C24.3693 12.8525 24.1261 12.8322 23.9564 12.8322C22.8316 12.8322 21.8639 13.235 21.8639 14.3192C21.8639 15.5403 22.7354 15.9532 23.9994 15.9532C24.6232 15.9482 25.2428 15.8517 25.8386 15.6669V12.9184C25.8386 11.6011 25.1267 10.9526 23.779 10.9222ZM24.5719 14.874C24.3862 14.9069 24.1982 14.9247 24.0096 14.9272C23.4041 14.9272 23.0748 14.7474 23.0748 14.3218C23.0748 13.8962 23.4041 13.7265 24.0096 13.7265C24.2122 13.7265 24.4453 13.7493 24.5719 13.7594V14.874ZM6.73037 12.0875L5.77281 12.6372V15.9304H6.7861C6.87985 15.9319 6.95697 15.8569 6.95836 15.7632V12.2167C6.96128 12.136 6.89959 12.0675 6.81903 12.0621C6.78328 12.0614 6.74836 12.073 6.72024 12.0951M4.72152 13.3617V15.8113C4.72152 15.8729 4.77143 15.9228 4.83298 15.9228H5.49162V12.7841L4.83551 13.1615C4.76278 13.1975 4.71811 13.273 4.72152 13.3541M5.42322 7.33257C4.71432 7.3351 4.00683 7.396 3.30797 7.51497C4.07121 6.53871 5.24292 5.97015 6.4821 5.97476C7.40304 5.97959 8.29547 6.29462 9.01535 6.86899C9.13188 6.96272 9.22054 6.97285 9.30921 6.88419C9.39786 6.79553 9.38774 6.7094 9.29147 6.5954C7.08784 3.98081 2.88603 4.69601 1.6715 7.89242C1.14029 8.05471 0.62748 8.27206 0.141429 8.54093C0.0173055 8.60933 -0.0282996 8.69799 0.0173057 8.79425C0.0620337 8.88933 0.174041 8.9319 0.270625 8.89051C0.663272 8.77652 1.06352 8.68026 1.48151 8.59159C1.43386 8.8156 1.41009 9.04402 1.41058 9.27303C1.3898 10.803 2.16352 12.2344 3.45491 13.0552C3.57903 13.1337 3.68796 13.1337 3.75888 13.0374C3.82982 12.9412 3.81968 12.8525 3.71329 12.7562C2.92016 12.0241 2.46997 10.9933 2.472 9.91394C2.46881 9.39137 2.574 8.87381 2.78106 8.394C3.19904 8.35853 3.65249 8.3332 4.15154 8.3332C7.38901 8.33827 10.1325 9.40476 10.1325 10.8056C10.1325 11.5149 9.23321 12.2217 8.16672 12.6954C7.9134 12.8094 7.88299 12.888 7.9134 13.002C7.94379 13.1159 8.06285 13.1413 8.19711 13.0982C10.0641 12.4852 11.4903 11.4795 11.4903 10.2635C11.4903 8.60932 8.82282 7.33257 5.44348 7.33257M15.8449 10.9424C15.5048 10.9371 15.1676 11.0063 14.857 11.1451V8.79425C14.4636 8.93319 14.095 9.13417 13.7652 9.38956C13.6133 9.49891 13.5289 9.67914 13.5422 9.86581V15.6922C14.1021 15.8837 14.6909 15.9771 15.2826 15.9684C17.0026 15.9532 17.9855 14.9044 17.9855 13.3845C17.9855 11.8645 17.2838 10.9424 15.8399 10.9424M15.3586 14.874C15.188 14.8817 15.0172 14.8638 14.8519 14.8208V12.1837C15.0906 12.0771 15.3506 12.0269 15.6119 12.0368C16.2705 12.0368 16.6252 12.4928 16.6252 13.3515C16.6252 14.2559 16.2097 14.8715 15.3586 14.8715M21.3471 10.9855C20.8138 10.9616 20.307 11.2193 20.0121 11.6644C19.9815 11.4517 19.9315 11.2423 19.8627 11.0387C19.6853 10.9957 19.5029 10.9778 19.3206 10.9855C19.1426 10.983 18.965 11.0008 18.7911 11.0387V15.8518C19.0082 15.8923 19.2289 15.9101 19.4497 15.905C19.6695 15.9051 19.8889 15.8873 20.1058 15.8518V13.501C20.1058 12.5662 20.5948 12.0672 21.2534 12.0672C21.399 12.0647 21.5446 12.0723 21.6891 12.09C21.765 11.7401 21.7727 11.3789 21.7119 11.026C21.5893 11.0012 21.4646 10.9876 21.3395 10.9855M46.8644 10.9222C45.3875 10.9222 44.5592 11.9355 44.5592 13.4554C44.5592 14.9753 45.4306 15.9608 46.8644 15.9608C48.3514 15.9608 49.1798 14.9753 49.1798 13.4554C49.1798 11.9355 48.3514 10.9222 46.8644 10.9222ZM46.8644 14.8917C46.1323 14.8917 45.9094 14.299 45.9094 13.4478C45.9094 12.5966 46.1323 11.9836 46.8644 11.9836C47.5965 11.9836 47.8321 12.5992 47.8321 13.4478C47.8321 14.3395 47.5788 14.8917 46.8644 14.8917ZM39.0798 12.9918L38.5503 12.7689C38.2413 12.6422 38.0614 12.5358 38.0614 12.3332C38.0614 12.0241 38.3375 11.9608 38.6998 11.9608C39.1218 11.9607 39.541 12.0292 39.9411 12.1635C40.0044 11.8372 40.0044 11.5018 39.9411 11.1755C39.4864 10.9907 38.9977 10.9044 38.5073 10.9222C37.494 10.9222 36.7137 11.4744 36.7137 12.3002C36.7137 13.045 37.0304 13.4174 37.9246 13.7771L38.3375 13.9469C38.7302 14.1064 38.8442 14.2002 38.8442 14.4535C38.8442 14.836 38.4617 14.9019 38.145 14.9019C37.6539 14.8965 37.168 14.8012 36.7112 14.6207C36.6276 14.9593 36.6276 15.3131 36.7112 15.6517C37.2316 15.883 37.7993 15.988 38.3679 15.9582C39.3812 15.9582 40.1843 15.4288 40.1843 14.4738C40.1843 13.6885 39.8448 13.3161 39.0899 12.9969M43.1912 14.874C42.5326 14.874 42.0969 14.3674 42.0969 13.4402C42.0969 12.5688 42.4465 12.0064 43.2014 12.0064C43.4896 12.0041 43.7752 12.062 44.0399 12.1761C44.1368 11.8425 44.2948 11.5299 44.506 11.254C44.0515 11.0181 43.5433 10.9046 43.0316 10.9247C41.575 10.9247 40.7365 11.9532 40.7365 13.4402C40.7365 14.9804 41.5978 15.9557 43.0848 15.9557C43.5851 15.9731 44.0817 15.8642 44.5288 15.6391C44.3056 15.3639 44.1339 15.0506 44.0221 14.7144C43.7594 14.8339 43.4719 14.8887 43.1836 14.874M34.0133 10.9247C32.5896 10.9247 31.7182 11.8797 31.7182 13.4731C31.7182 15.0665 32.6428 15.9557 34.2261 15.9557C34.7372 15.9678 35.2452 15.8738 35.7182 15.6796C35.7917 15.3458 35.7917 15.0001 35.7182 14.6663C35.2779 14.806 34.8197 14.8811 34.3578 14.8892C33.6257 14.8892 33.1165 14.6131 33.0102 13.8379H36.0222C36.0626 13.6174 36.0805 13.3933 36.0754 13.1691C36.0754 11.7353 35.2673 10.9298 34.026 10.9298M33.0279 12.8728C33.1241 12.2876 33.4737 11.938 34.0032 11.938C34.5985 11.938 34.8315 12.3408 34.8544 12.8728H33.0279Z" fill="#555555"/>
<path fill-rule="evenodd" clip-rule="evenodd" d="M124.714 6.33494L124.711 6.33836L124.707 6.34177C123.61 7.57353 122.048 8.61308 120.183 9.34537L120 9.41621L120.143 9.55123C121.287 10.6278 121.919 12.0656 121.919 13.5944V19.6728C122.078 22.0151 123.831 24.121 126.609 25.309C127.791 25.8017 128.796 26.4969 129.517 27.3238L129.612 27.4318L129.707 27.3238C130.427 26.4969 131.432 25.8017 132.614 25.309C135.392 24.121 137.144 22.0151 137.301 19.6728V13.5944C137.304 12.0656 137.933 10.6278 139.08 9.55123L139.22 9.41621L139.04 9.34537C137.175 8.61308 135.609 7.57353 134.512 6.34177L134.509 6.33836L134.506 6.33494C133.174 5.06256 131.435 4.35382 129.611 4.34375C127.784 4.35382 126.046 5.06256 124.714 6.33494Z" fill="#555555"/>
<path fill-rule="evenodd" clip-rule="evenodd" d="M129.612 4.59033C131.371 4.6004 133.049 5.28541 134.332 6.5141C135.423 7.73237 136.954 8.76185 138.775 9.50097C137.664 10.6112 137.053 12.0558 137.053 13.5946V19.6595C136.9 21.9073 135.205 23.9321 132.516 25.083C131.347 25.5689 130.349 26.2507 129.612 27.0639C128.874 26.2505 127.873 25.5688 126.704 25.083C124.018 23.9321 122.323 21.9073 122.167 19.6595V13.5946C122.167 12.0558 121.559 10.6112 120.448 9.50097C122.265 8.76185 123.801 7.73254 124.887 6.5141C126.174 5.28541 127.852 4.6004 129.612 4.59033ZM127.526 6.04144V10.3039H131.694V6.03802C132.227 6.25071 132.73 6.54431 133.195 6.90551C133.596 7.22949 133.925 7.61425 134.302 7.96179C135.151 8.72547 136.098 9.3746 137.117 9.89238C136.493 10.8307 136.139 11.8904 136.037 12.9972H134.404V17.1383H136.007V19.6121C135.929 20.4559 135.63 21.1545 135.141 21.8429C134.581 22.5752 133.922 23.122 133.137 23.6013C132.668 23.8714 132.179 24.0839 131.694 24.31V19.828H127.526V24.3065C127.431 24.2626 127.333 24.2187 127.234 24.1749L126.905 24.0296C125.465 23.3478 124.211 22.3759 123.539 20.9043C123.366 20.4757 123.257 20.0708 123.216 19.6118V17.138H124.816V12.9969H123.186C123.08 11.8865 122.727 10.8302 122.106 9.89204C123.42 9.22717 124.653 8.32947 125.641 7.23939C126.205 6.71313 126.84 6.31148 127.526 6.04144Z" fill="#C4C4C4"/>
<path fill-rule="evenodd" clip-rule="evenodd" d="M133.54 29.9459V27.7927H133.992V29.5511H135.058V29.9459H133.54ZM133.119 27.7925V29.9457H132.667V27.7925H133.119ZM130.585 29.281H131.017C131.037 29.3722 131.054 29.4428 131.091 29.497C131.163 29.5881 131.288 29.6422 131.468 29.6422C131.577 29.6422 131.669 29.6221 131.74 29.605C131.866 29.5511 131.92 29.4804 131.92 29.3553C131.92 29.281 131.903 29.2305 131.832 29.1933C131.777 29.1393 131.669 29.1224 131.543 29.0852L131.305 29.0315C131.071 28.9775 130.928 28.9234 130.836 28.8695C130.694 28.7614 130.622 28.6197 130.622 28.4036C130.622 28.0088 130.911 27.7219 131.451 27.7219C131.903 27.7219 132.28 27.975 132.3 28.4408H131.849C131.849 28.2956 131.794 28.2078 131.686 28.1539C131.614 28.1167 131.523 28.1 131.414 28.1C131.179 28.1 131.037 28.2078 131.037 28.3666C131.037 28.441 131.071 28.5119 131.145 28.5489C131.179 28.5658 131.288 28.6028 131.414 28.6366L131.794 28.7278C131.957 28.7614 132.083 28.8155 132.174 28.8695C132.3 28.9775 132.372 29.1224 132.372 29.3184C132.372 29.7131 132.046 30 131.488 30C130.928 29.9998 130.585 29.73 130.585 29.281ZM128.354 29.9459L129.132 27.7927H129.655L130.412 29.9459H129.923L129.78 29.497H128.986L128.823 29.9459H128.354ZM129.383 28.2787L129.111 29.1392H129.655L129.383 28.2787ZM127.406 27.7925C127.712 27.7925 127.855 27.867 127.963 27.9917C128.055 28.0998 128.126 28.2415 128.126 28.4035C128.126 28.6027 128.018 28.8353 127.783 28.9232C127.984 28.9941 128.055 29.1223 128.055 29.4261V29.5678C128.055 29.6588 128.072 29.7298 128.072 29.7668C128.089 29.8208 128.109 29.8749 128.164 29.8916V29.9455H127.658C127.641 29.8916 127.641 29.8578 127.62 29.8375C127.62 29.7667 127.603 29.7127 127.603 29.6419V29.4427C127.603 29.176 127.532 29.102 127.26 29.102H126.792V29.9455H126.34V27.7924L127.406 27.7925ZM127.315 28.1706H126.791V28.7443H127.298C127.406 28.7443 127.478 28.7274 127.532 28.7071C127.62 28.6735 127.675 28.5824 127.675 28.4574C127.675 28.3325 127.62 28.2413 127.532 28.2075C127.495 28.1706 127.406 28.1706 127.315 28.1706ZM125.124 28.9908H124.597V29.5644H125.124C125.222 29.5644 125.301 29.5644 125.352 29.5307C125.447 29.4836 125.494 29.4026 125.494 29.2607C125.494 29.1494 125.447 29.0683 125.352 29.0379C125.301 29.0043 125.222 28.9908 125.124 28.9908ZM125.222 27.7925C125.477 27.7925 125.671 27.8736 125.783 28.0187C125.847 28.1133 125.878 28.2246 125.878 28.3528C125.878 28.4811 125.847 28.5924 125.783 28.6699C125.735 28.7037 125.688 28.751 125.606 28.7812C125.83 28.8623 125.942 29.0547 125.942 29.2909C125.942 29.4191 125.912 29.5304 125.847 29.6419C125.817 29.7061 125.766 29.7532 125.705 29.8039C125.558 29.9152 125.365 29.9455 125.141 29.9455H124.163V27.7924L125.222 27.7925ZM125.076 28.1606H124.597V28.6399H125.124C125.318 28.6399 125.447 28.5759 125.447 28.4004C125.447 28.2889 125.416 28.2249 125.335 28.1909C125.253 28.1773 125.175 28.1606 125.076 28.1606ZM126.095 3.24326L126.53 4.573L125.392 3.75297L124.254 4.573L124.689 3.24326L123.551 2.42323H124.958L125.392 1.09349L125.827 2.42323H127.233L126.095 3.24326ZM133.126 3.24326L132.691 4.573L133.829 3.75297L134.966 4.573L134.532 3.24326L135.67 2.42323H134.264L133.829 1.09349L133.394 2.42323H131.988L133.126 3.24326ZM136.543 5.94319L136.108 7.27293L137.246 6.44948L138.383 7.27293L137.949 5.94319L139.087 5.12316H137.68L137.246 3.79342L136.811 5.12316H135.405L136.543 5.94319ZM122.679 5.94319L123.113 7.27293L121.976 6.44948L120.838 7.27293L121.272 5.94319L120.135 5.12316H121.541L121.976 3.79342L122.41 5.12316H123.816L122.679 5.94319ZM130.314 2.14994L130.748 3.47951L129.611 2.65947L128.473 3.47951L128.907 2.14994L127.77 1.32974H129.176L129.611 0L130.045 1.32974H131.451L130.314 2.14994ZM128.503 5.75099V13.9657H123.212L123.215 16.1661H128.503V24.8261C128.891 25.0624 129.261 25.3222 129.611 25.616C129.957 25.3222 130.331 25.0624 130.718 24.8261V16.1661H136.006V13.9655H130.718V5.74757C130.308 5.66479 129.89 5.62633 129.471 5.63286C129.142 5.64976 128.816 5.6868 128.503 5.75099Z" fill="white"/>
<path fill-rule="evenodd" clip-rule="evenodd" d="M134.227 11.6709L132.526 13.4224H131.266V12.1704L133.028 10.4796V10.1689H126.195V10.4796L127.954 12.1704V13.4224H126.698L124.996 11.6709H124.684V18.4611H124.996L126.698 16.7097H127.954V17.9618L126.195 19.6526V19.9631H133.028V19.6526L131.266 17.9618V16.7097H132.526L134.227 18.4611H134.54V11.6709H134.227Z" fill="white"/>
<path fill-rule="evenodd" clip-rule="evenodd" d="M126.239 15.0652C126.239 14.6535 126.368 14.3295 126.582 14.0966C126.783 13.9008 127.034 13.793 127.343 13.793C127.757 13.793 128.063 13.9346 128.243 14.2047C128.352 14.35 128.406 14.4916 128.423 14.6536H127.92C127.883 14.5288 127.829 14.4375 127.774 14.3836C127.683 14.2755 127.557 14.2216 127.377 14.2216C127 14.2216 126.762 14.5456 126.762 15.0857C126.762 15.6223 127.017 15.8922 127.377 15.8922C127.557 15.8922 127.683 15.8383 127.774 15.7304C127.829 15.6594 127.883 15.5684 127.92 15.4433H128.423C128.335 15.9631 127.954 16.3411 127.377 16.3411C127.034 16.3411 126.745 16.2331 126.548 16.0003C126.348 15.7637 126.239 15.46 126.239 15.0652ZM129.9 15.19H129.306V15.8379H129.9C130.009 15.8379 130.097 15.8379 130.152 15.8007C130.26 15.7468 130.315 15.659 130.315 15.497C130.315 15.3723 130.26 15.2811 130.152 15.2441C130.097 15.2103 130.009 15.19 129.9 15.19ZM130.009 13.8467C130.298 13.8467 130.515 13.9345 130.641 14.0965C130.712 14.2044 130.75 14.3293 130.75 14.4744C130.75 14.6161 130.712 14.7444 130.641 14.8322C130.587 14.8694 130.532 14.9233 130.441 14.957C130.695 15.0481 130.821 15.264 130.821 15.5307C130.821 15.6759 130.784 15.8005 130.712 15.9255C130.675 15.9998 130.621 16.0537 130.549 16.1044C130.386 16.2326 130.172 16.2664 129.918 16.2664H128.817V13.8467H130.009ZM129.846 14.2585H129.306V14.7986H129.9C130.118 14.7986 130.26 14.7243 130.26 14.5285C130.26 14.4037 130.227 14.3293 130.135 14.2957C130.043 14.2754 129.955 14.2585 129.846 14.2585ZM131.249 16.2667V13.8467H132.981V14.2754H131.755V14.8322H132.838V15.2439H131.755V16.2666L131.249 16.2667Z" fill="#555555"/>
</svg>
