<svg width="148" height="17" viewBox="0 0 148 17" fill="none" xmlns="http://www.w3.org/2000/svg">
<g clip-path="url(#clip0_3141_476)">
<path d="M19.5783 8.11289V14.0519H20.9664V8.11289H19.5783ZM17.0797 5.84916H15.652C15.4933 5.84916 15.5198 5.99564 15.5198 5.99564C15.5462 6.18207 15.5859 6.48834 15.5859 7.12751C15.5859 8.53901 15.414 10.563 13.8805 12.4939L13.7747 12.627C13.7747 12.627 12.8494 6.1288 12.8361 6.00896C12.8361 6.00896 12.8361 5.86248 12.7039 5.86248H11.263C11.1308 5.86248 11.1308 6.00896 11.1308 6.00896C11.0911 6.75466 10.6813 13.0132 6.14683 14.0252C7.11189 14.1317 8.27524 13.8255 9.29318 13.1996C10.5491 12.414 11.3952 11.2555 11.6728 9.92388C11.6728 9.92388 12.228 13.4127 12.2941 14.2116V14.2649L12.2545 14.2915C10.9853 14.9707 9.54436 15.3435 8.10338 15.3435C4.53399 15.3435 1.37442 13.2129 -0.0136719 9.96382C0.805966 13.7855 4.19028 16.5686 8.14304 16.5686C12.7568 16.5686 15.5066 12.6803 15.9825 9.91056C15.9825 9.91056 16.6038 13.9453 16.617 14.0785H18.5075C18.4811 13.9054 17.2252 6.15543 17.2119 6.03559C17.2119 6.03559 17.2119 5.88911 17.0797 5.88911V5.84916ZM1.0968 9.24476C1.0968 4.98362 4.66619 1.52145 9.042 1.52145C11.7521 1.52145 14.2771 2.893 15.7445 5.11678C14.6737 2.08072 11.686 0.00341797 8.34134 0.00341797C4.01842 0.00341797 0.501907 3.39901 0.501907 7.56694C0.501907 8.71212 0.779526 9.83066 1.2951 10.856C1.17612 10.3367 1.0968 9.79072 1.0968 9.25807V9.24476ZM34.226 8.96512C33.7237 8.37921 33.023 8.07295 32.1769 8.07295C31.3176 8.07295 30.5905 8.35258 30.0089 8.91186C29.4404 9.45781 29.1496 10.1902 29.1496 11.0957C29.1496 11.9879 29.4272 12.7069 29.9824 13.2396C30.5377 13.7722 31.3441 14.0385 32.3488 14.0385C34.3053 14.0385 34.7284 12.6803 34.887 12.2409L34.3847 12.0811C33.9352 12.9067 32.9305 12.9599 32.3356 12.92C31.9125 12.8934 31.5292 12.7469 31.2251 12.5338C30.921 12.3075 30.7095 11.9879 30.617 11.4952L30.5905 11.3087H34.9796C34.9663 10.3367 34.7152 9.55103 34.226 8.97844V8.96512ZM30.6963 10.4698C30.6302 10.4698 30.6302 10.4033 30.6302 10.3766C30.6831 10.0304 30.8153 9.76408 31.0532 9.5244C31.3176 9.24476 31.7275 9.08497 32.1637 9.08497C32.5603 9.08497 32.8776 9.20481 33.1552 9.43118C33.3799 9.63092 33.5386 9.91056 33.6311 10.2967C33.6443 10.3367 33.6708 10.4565 33.565 10.4565H30.6963V10.4698ZM38.6415 8.04631C36.9758 8.04631 36.3809 9.07165 36.1958 9.55103C36.1958 9.56434 36.1297 9.72414 36.1297 9.72414L36.6849 9.91056C36.6849 9.91056 37.0419 8.87191 38.4564 8.93849C39.8842 8.99175 39.7123 10.1769 39.7123 10.3633C38.9191 10.1236 37.7954 10.1502 37.0551 10.4832C36.1297 10.9093 35.9843 11.7615 36.0239 12.3873C36.0636 13.3195 36.8832 13.972 37.9408 14.0252C38.8927 14.0785 39.3157 13.8654 39.7123 13.4793L39.6991 14.0252H40.955V12.4672V10.5497V10.2168V9.93719C40.9814 9.23144 40.4923 8.033 38.6415 8.033V8.04631ZM39.6991 12.6537C39.6991 12.7469 39.6727 12.8135 39.5933 12.8534C39.3554 12.9733 38.853 13.133 38.2317 13.0931C37.5839 13.0398 37.3327 12.5738 37.2931 12.374C37.2798 12.2941 37.1344 11.4286 37.9673 11.1623C38.5093 10.9892 39.1967 11.0957 39.5669 11.2022C39.6727 11.2288 39.6991 11.2954 39.6991 11.4286V12.667V12.6537ZM20.8739 5.84916H19.7237C19.5519 5.84916 19.5783 6.02227 19.5783 6.02227C19.5783 6.2087 19.5783 7.08756 19.5783 7.27398H20.9928V6.00896C20.9928 6.00896 21.0061 5.86248 20.8606 5.86248L20.8739 5.84916ZM27.9333 5.84916H26.7567C26.6378 5.84916 26.6378 5.98233 26.6378 5.98233V8.41916L26.4659 8.32595C26.2808 8.23274 26.0958 8.16616 25.8975 8.12621C25.6992 8.08626 25.4612 8.07295 25.1968 8.07295C24.2714 8.07295 23.5179 8.33927 22.9626 8.88522C22.4206 9.41787 22.1298 10.1902 22.1298 11.1356C22.1298 11.9745 22.3677 12.6803 22.8304 13.2396C23.2931 13.7855 23.9673 14.0652 24.8531 14.0652C26.1222 14.0652 26.6245 13.2928 26.6245 13.2928V14.0385H28.0523V12.6404C28.0523 11.0691 28.0523 5.99564 28.0523 5.99564C28.0523 5.99564 28.0523 5.84916 27.9333 5.84916ZM26.5584 12.4273C26.4263 12.5471 26.2544 12.6404 26.0429 12.7202C25.8181 12.8135 25.5537 12.8534 25.2629 12.8534C24.787 12.8534 24.4036 12.6936 24.126 12.374C23.8484 12.0544 23.7162 11.5884 23.7162 10.9625C23.7162 10.35 23.8484 9.89724 24.0995 9.61761C24.3639 9.32465 24.7605 9.17818 25.2893 9.17818C25.567 9.17818 25.8314 9.21813 26.0693 9.31134C26.2808 9.39123 26.4395 9.47113 26.5584 9.57766C26.5981 9.61761 26.6378 9.68419 26.6378 9.7774V12.2142C26.6378 12.3075 26.5981 12.374 26.5584 12.414V12.4273Z" fill="#555555"/>
<path d="M41.8144 4.86377C41.3252 4.86377 40.9551 5.23662 40.9551 5.72931C40.9551 6.20869 41.3252 6.59486 41.8144 6.59486C42.3035 6.59486 42.6737 6.22201 42.6737 5.72931C42.6737 5.24994 42.3035 4.86377 41.8144 4.86377ZM41.8144 4.98361C42.2242 4.98361 42.5415 5.31652 42.5415 5.72931C42.5415 6.14211 42.2374 6.47501 41.8144 6.47501C41.4046 6.47501 41.0873 6.14211 41.0873 5.72931C41.0873 5.31652 41.3913 4.98361 41.8144 4.98361ZM41.6293 5.78258H41.8408L42.1184 6.22201H42.2639L41.973 5.78258C42.1052 5.75595 42.2242 5.67605 42.2242 5.50294C42.2242 5.32983 42.1317 5.2233 41.9069 5.2233H41.5235V6.22201H41.6425V5.78258H41.6293ZM41.6293 5.67605V5.32983H41.854C41.973 5.32983 42.092 5.35646 42.092 5.50294C42.092 5.67605 41.9466 5.67605 41.8012 5.67605H41.6425H41.6293Z" fill="#555555"/>
</g>
<path d="M71.5217 8.10947V14.0484H72.9098V8.10947H71.5217ZM69.0231 5.84575H67.5953C67.4367 5.84575 67.4631 5.99222 67.4631 5.99222C67.4896 6.17865 67.5292 6.48492 67.5292 7.12409C67.5292 8.53559 67.3574 10.5596 65.8239 12.4905L65.7181 12.6236C65.7181 12.6236 64.7927 6.12538 64.7795 6.00554C64.7795 6.00554 64.7795 5.85906 64.6473 5.85906H63.2063C63.0741 5.85906 63.0741 6.00554 63.0741 6.00554C63.0345 6.75124 62.6246 13.0098 58.0902 14.0218C59.0552 14.1283 60.2186 13.8221 61.2365 13.1962C62.4924 12.4106 63.3385 11.2521 63.6161 9.92046C63.6161 9.92046 64.1714 13.4093 64.2375 14.2082V14.2615L64.1978 14.2881C62.9287 14.9672 61.4877 15.3401 60.0467 15.3401C56.4774 15.3401 53.3178 13.2095 51.9297 9.96041C52.7493 13.7821 56.1336 16.5652 60.0864 16.5652C64.7002 16.5652 67.4499 12.6769 67.9258 9.90714C67.9258 9.90714 68.5472 13.9419 68.5604 14.0751H70.4509C70.4244 13.902 69.1685 6.15202 69.1553 6.03217C69.1553 6.03217 69.1553 5.88569 69.0231 5.88569V5.84575ZM53.0402 9.24134C53.0402 4.9802 56.6096 1.51803 60.9854 1.51803C63.6955 1.51803 66.2205 2.88958 67.6879 5.11336C66.6171 2.0773 63.6294 0 60.2847 0C55.9618 0 52.4453 3.39559 52.4453 7.56352C52.4453 8.7087 52.7229 9.82725 53.2385 10.8526C53.1195 10.3333 53.0402 9.7873 53.0402 9.25465V9.24134ZM86.1694 8.9617C85.667 8.3758 84.9664 8.06953 84.1203 8.06953C83.261 8.06953 82.5339 8.34916 81.9522 8.90844C81.3838 9.4544 81.0929 10.1868 81.0929 11.0923C81.0929 11.9844 81.3705 12.7035 81.9258 13.2362C82.481 13.7688 83.2874 14.0351 84.2921 14.0351C86.2487 14.0351 86.6717 12.6769 86.8304 12.2375L86.328 12.0777C85.8785 12.9033 84.8738 12.9565 84.2789 12.9166C83.8559 12.8899 83.4725 12.7435 83.1685 12.5304C82.8644 12.304 82.6529 11.9844 82.5603 11.4918L82.5339 11.3053H86.9229C86.9097 10.3333 86.6585 9.54761 86.1694 8.97502V8.9617ZM82.6397 10.4664C82.5736 10.4664 82.5736 10.3998 82.5736 10.3732C82.6264 10.027 82.7586 9.76066 82.9966 9.52098C83.261 9.24134 83.6708 9.08155 84.1071 9.08155C84.5037 9.08155 84.8209 9.20139 85.0986 9.42776C85.3233 9.6275 85.4819 9.90714 85.5745 10.2933C85.5877 10.3333 85.6141 10.4531 85.5084 10.4531H82.6397V10.4664ZM90.5848 8.04289C88.9191 8.04289 88.3242 9.06823 88.1392 9.54761C88.1392 9.56092 88.0731 9.72072 88.0731 9.72072L88.6283 9.90714C88.6283 9.90714 88.9852 8.86849 90.3998 8.93507C91.8275 8.98833 91.6557 10.1735 91.6557 10.3599C90.8625 10.1202 89.7388 10.1468 88.9985 10.4797C88.0731 10.9058 87.9276 11.7581 87.9673 12.3839C88.007 13.3161 88.8266 13.9685 89.8842 14.0218C90.836 14.0751 91.2591 13.862 91.6557 13.4758L91.6424 14.0218H92.8983V12.4638V10.5463V10.2134V9.93377C92.9248 9.22802 92.4356 8.02958 90.5848 8.02958V8.04289ZM91.6424 12.6502C91.6424 12.7435 91.616 12.81 91.5367 12.85C91.2987 12.9698 90.7964 13.1296 90.175 13.0897C89.5273 13.0364 89.2761 12.5704 89.2364 12.3706C89.2232 12.2907 89.0778 11.4252 89.9106 11.1589C90.4526 10.9857 91.1401 11.0923 91.5102 11.1988C91.616 11.2254 91.6424 11.292 91.6424 11.4252V12.6636V12.6502ZM72.8172 5.84575H71.6671C71.4952 5.84575 71.5217 6.01885 71.5217 6.01885C71.5217 6.20528 71.5217 7.08414 71.5217 7.27056H72.9362V6.00554C72.9362 6.00554 72.9494 5.85906 72.804 5.85906L72.8172 5.84575ZM79.8767 5.84575H78.7001C78.5811 5.84575 78.5811 5.97891 78.5811 5.97891V8.41574L78.4093 8.32253C78.2242 8.22932 78.0391 8.16274 77.8408 8.12279C77.6425 8.08284 77.4045 8.06953 77.1401 8.06953C76.2148 8.06953 75.4612 8.33585 74.906 8.88181C74.364 9.41445 74.0731 10.1868 74.0731 11.1322C74.0731 11.9711 74.3111 12.6769 74.7738 13.2362C75.2365 13.7821 75.9107 14.0617 76.7964 14.0617C78.0655 14.0617 78.5679 13.2894 78.5679 13.2894V14.0351H79.9957V12.6369C79.9957 11.0656 79.9957 5.99222 79.9957 5.99222C79.9957 5.99222 79.9957 5.84575 79.8767 5.84575ZM78.5018 12.4239C78.3696 12.5437 78.1977 12.6369 77.9862 12.7168C77.7615 12.81 77.4971 12.85 77.2062 12.85C76.7303 12.85 76.347 12.6902 76.0693 12.3706C75.7917 12.051 75.6595 11.585 75.6595 10.9591C75.6595 10.3466 75.7917 9.89383 76.0429 9.61419C76.3073 9.32124 76.7039 9.17476 77.2327 9.17476C77.5103 9.17476 77.7747 9.21471 78.0127 9.30792C78.2242 9.38782 78.3828 9.46771 78.5018 9.57424C78.5415 9.61419 78.5811 9.68077 78.5811 9.77398V12.2108C78.5811 12.304 78.5415 12.3706 78.5018 12.4106V12.4239Z" fill="#555555"/>
<path d="M93.7577 4.86035C93.2686 4.86035 92.8984 5.2332 92.8984 5.72589C92.8984 6.20527 93.2686 6.59144 93.7577 6.59144C94.2469 6.59144 94.617 6.21859 94.617 5.72589C94.617 5.24652 94.2469 4.86035 93.7577 4.86035ZM93.7577 4.9802C94.1676 4.9802 94.4848 5.3131 94.4848 5.72589C94.4848 6.13869 94.1808 6.47159 93.7577 6.47159C93.3479 6.47159 93.0306 6.13869 93.0306 5.72589C93.0306 5.3131 93.3347 4.9802 93.7577 4.9802ZM93.5727 5.77916H93.7842L94.0618 6.21859H94.2072L93.9164 5.77916C94.0486 5.75253 94.1676 5.67263 94.1676 5.49952C94.1676 5.32641 94.075 5.21988 93.8503 5.21988H93.4669V6.21859H93.5859V5.77916H93.5727ZM93.5727 5.67263V5.32641H93.7974C93.9164 5.32641 94.0354 5.35305 94.0354 5.49952C94.0354 5.67263 93.8899 5.67263 93.7445 5.67263H93.5859H93.5727Z" fill="#555555"/>
<path d="M124.229 8.10947V14.0484H125.617V8.10947H124.229ZM121.73 5.84575H120.302C120.144 5.84575 120.17 5.99222 120.17 5.99222C120.197 6.17865 120.236 6.48492 120.236 7.12409C120.236 8.53559 120.064 10.5596 118.531 12.4905L118.425 12.6236C118.425 12.6236 117.5 6.12538 117.487 6.00554C117.487 6.00554 117.487 5.85906 117.354 5.85906H115.913C115.781 5.85906 115.781 6.00554 115.781 6.00554C115.741 6.75124 115.332 13.0098 110.797 14.0218C111.762 14.1283 112.926 13.8221 113.944 13.1962C115.199 12.4106 116.046 11.2521 116.323 9.92046C116.323 9.92046 116.878 13.4093 116.945 14.2082V14.2615L116.905 14.2881C115.636 14.9672 114.195 15.3401 112.754 15.3401C109.184 15.3401 106.025 13.2095 104.637 9.96041C105.456 13.7821 108.841 16.5652 112.793 16.5652C117.407 16.5652 120.157 12.6769 120.633 9.90714C120.633 9.90714 121.254 13.9419 121.267 14.0751H123.158C123.131 13.902 121.876 6.15202 121.862 6.03217C121.862 6.03217 121.862 5.88569 121.73 5.88569V5.84575ZM105.747 9.24134C105.747 4.9802 109.317 1.51803 113.692 1.51803C116.402 1.51803 118.927 2.88958 120.395 5.11336C119.324 2.0773 116.336 0 112.992 0C108.669 0 105.152 3.39559 105.152 7.56352C105.152 8.7087 105.43 9.82725 105.945 10.8526C105.827 10.3333 105.747 9.7873 105.747 9.25465V9.24134ZM138.876 8.9617C138.374 8.3758 137.673 8.06953 136.827 8.06953C135.968 8.06953 135.241 8.34916 134.659 8.90844C134.091 9.4544 133.8 10.1868 133.8 11.0923C133.8 11.9844 134.078 12.7035 134.633 13.2362C135.188 13.7688 135.994 14.0351 136.999 14.0351C138.956 14.0351 139.379 12.6769 139.537 12.2375L139.035 12.0777C138.586 12.9033 137.581 12.9565 136.986 12.9166C136.563 12.8899 136.18 12.7435 135.875 12.5304C135.571 12.304 135.36 11.9844 135.267 11.4918L135.241 11.3053H139.63C139.617 10.3333 139.366 9.54761 138.876 8.97502V8.9617ZM135.347 10.4664C135.281 10.4664 135.281 10.3998 135.281 10.3732C135.333 10.027 135.466 9.76066 135.704 9.52098C135.968 9.24134 136.378 9.08155 136.814 9.08155C137.211 9.08155 137.528 9.20139 137.806 9.42776C138.03 9.6275 138.189 9.90714 138.282 10.2933C138.295 10.3333 138.321 10.4531 138.215 10.4531H135.347V10.4664ZM143.292 8.04289C141.626 8.04289 141.031 9.06823 140.846 9.54761C140.846 9.56092 140.78 9.72072 140.78 9.72072L141.335 9.90714C141.335 9.90714 141.692 8.86849 143.107 8.93507C144.535 8.98833 144.363 10.1735 144.363 10.3599C143.569 10.1202 142.446 10.1468 141.705 10.4797C140.78 10.9058 140.635 11.7581 140.674 12.3839C140.714 13.3161 141.534 13.9685 142.591 14.0218C143.543 14.0751 143.966 13.862 144.363 13.4758L144.349 14.0218H145.605V12.4638V10.5463V10.2134V9.93377C145.632 9.22802 145.143 8.02958 143.292 8.02958V8.04289ZM144.349 12.6502C144.349 12.7435 144.323 12.81 144.244 12.85C144.006 12.9698 143.503 13.1296 142.882 13.0897C142.234 13.0364 141.983 12.5704 141.943 12.3706C141.93 12.2907 141.785 11.4252 142.618 11.1589C143.16 10.9857 143.847 11.0923 144.217 11.1988C144.323 11.2254 144.349 11.292 144.349 11.4252V12.6636V12.6502ZM125.524 5.84575H124.374C124.202 5.84575 124.229 6.01885 124.229 6.01885C124.229 6.20528 124.229 7.08414 124.229 7.27056H125.643V6.00554C125.643 6.00554 125.656 5.85906 125.511 5.85906L125.524 5.84575ZM132.584 5.84575H131.407C131.288 5.84575 131.288 5.97891 131.288 5.97891V8.41574L131.116 8.32253C130.931 8.22932 130.746 8.16274 130.548 8.12279C130.35 8.08284 130.112 8.06953 129.847 8.06953C128.922 8.06953 128.168 8.33585 127.613 8.88181C127.071 9.41445 126.78 10.1868 126.78 11.1322C126.78 11.9711 127.018 12.6769 127.481 13.2362C127.944 13.7821 128.618 14.0617 129.503 14.0617C130.773 14.0617 131.275 13.2894 131.275 13.2894V14.0351H132.703V12.6369C132.703 11.0656 132.703 5.99222 132.703 5.99222C132.703 5.99222 132.703 5.84575 132.584 5.84575ZM131.209 12.4239C131.077 12.5437 130.905 12.6369 130.693 12.7168C130.469 12.81 130.204 12.85 129.913 12.85C129.437 12.85 129.054 12.6902 128.776 12.3706C128.499 12.051 128.367 11.585 128.367 10.9591C128.367 10.3466 128.499 9.89383 128.75 9.61419C129.014 9.32124 129.411 9.17476 129.94 9.17476C130.217 9.17476 130.482 9.21471 130.72 9.30792C130.931 9.38782 131.09 9.46771 131.209 9.57424C131.248 9.61419 131.288 9.68077 131.288 9.77398V12.2108C131.288 12.304 131.248 12.3706 131.209 12.4106V12.4239Z" fill="#555555"/>
<path d="M146.465 4.86035C145.976 4.86035 145.605 5.2332 145.605 5.72589C145.605 6.20527 145.976 6.59144 146.465 6.59144C146.954 6.59144 147.324 6.21859 147.324 5.72589C147.324 5.24652 146.954 4.86035 146.465 4.86035ZM146.465 4.9802C146.875 4.9802 147.192 5.3131 147.192 5.72589C147.192 6.13869 146.888 6.47159 146.465 6.47159C146.055 6.47159 145.738 6.13869 145.738 5.72589C145.738 5.3131 146.042 4.9802 146.465 4.9802ZM146.28 5.77916H146.491L146.769 6.21859H146.914L146.623 5.77916C146.756 5.75253 146.875 5.67263 146.875 5.49952C146.875 5.32641 146.782 5.21988 146.557 5.21988H146.174V6.21859H146.293V5.77916H146.28ZM146.28 5.67263V5.32641H146.504C146.623 5.32641 146.742 5.35305 146.742 5.49952C146.742 5.67263 146.597 5.67263 146.452 5.67263H146.293H146.28Z" fill="#555555"/>
<defs>
<clipPath id="clip0_3141_476">
<rect width="42.674" height="16.5454" fill="white"/>
</clipPath>
</defs>
</svg>
